<?xml version="1.0" encoding="utf-8"?>
<!-- Generator: Adobe Illustrator 15.0.2, SVG Export Plug-In . SVG Version: 6.00 Build 0)  -->
<!DOCTYPE svg PUBLIC "-//W3C//DTD SVG 1.1 Basic//EN" "http://www.w3.org/Graphics/SVG/1.1/DTD/svg11-basic.dtd">
<svg version="1.1" baseProfile="basic" id="Layer_1"
	 xmlns="http://www.w3.org/2000/svg" xmlns:xlink="http://www.w3.org/1999/xlink" x="0px" y="0px" width="1000px" height="20px"
	 viewBox="0 0 1000 20" xml:space="preserve">
<line fill="none" stroke="#FFFFFF" stroke-width="2" stroke-miterlimit="10" x1="530" y1="7" x2="1000" y2="7"/>
<line fill="none" stroke="#FFFFFF" stroke-width="2" stroke-miterlimit="10" x1="0" y1="7" x2="482" y2="7"/>
<line fill="none" stroke="#FFFFFF" stroke-miterlimit="10" x1="530" y1="10.5" x2="1000" y2="10.5"/>
<line fill="none" stroke="#FFFFFF" stroke-miterlimit="10" x1="0" y1="10.5" x2="482" y2="10.5"/>
<g>
	<g id="XMLID_4_">
		<g>
			<path fill="#FFFFFF" d="M509.896,9.756c-3.702,2.428-4.805-0.859-1.922-2.93c-1.445,0.259-2.221,1.074-2.324,2.444
				c-0.404-0.311-0.577-0.717-0.521-1.214c0.059-0.318,0.114-0.637,0.172-0.955c1.312-3.872,5.978-2.17,7.576-5.196
				C512.396,4.46,512.444,8.083,509.896,9.756z"/>
		</g>
		<g>
			<path fill="#FFFFFF" d="M505.301,7.1c1.312-3.872,5.978-2.17,7.576-5.196"/>
			<path fill="#FFFFFF" d="M505.129,8.055c0.059-0.318,0.114-0.636,0.172-0.955"/>
			<path fill="#FFFFFF" d="M512.877,1.904c-0.479,2.557-0.433,6.18-2.98,7.852c-3.701,2.428-4.804-0.859-1.92-2.93
				c-1.446,0.259-2.222,1.074-2.325,2.444c-0.404-0.311-0.577-0.717-0.521-1.214"/>
		</g>
	</g>
	<g id="XMLID_3_">
		<g>
			<path fill="#FFFFFF" d="M505.566,10.904c0.029-0.194-0.091-0.405-0.121-0.556c-0.405-1.066-1.122-1.65-2.438-1.871
				c-0.939-0.157-2.039,0.51-3.317,0.534c1.558,0.933,1.691,2.132,3.115,2.994c0.545,0.329,1.685,0.749,2.227,0.208
				c0.045-1.426-1.27-1.756-1.932-2.196c0.964,0.37,2.068,0.642,2.188,1.61C505.534,11.592,505.57,11.094,505.566,10.904z"/>
		</g>
		<g>
			<path fill="#FFFFFF" d="M505.444,10.348c-0.404-1.066-1.121-1.65-2.438-1.871c-0.939-0.157-2.039,0.51-3.317,0.534"/>
			<path fill="#FFFFFF" d="M505.566,10.904c0.029-0.194-0.091-0.405-0.121-0.556"/>
			<path fill="#FFFFFF" d="M499.689,9.011c1.558,0.933,1.691,2.132,3.115,2.994c0.545,0.329,1.685,0.749,2.227,0.208
				c0.045-1.426-1.27-1.756-1.932-2.196c0.963,0.37,2.068,0.643,2.187,1.611c0.248-0.035,0.284-0.534,0.28-0.724"/>
		</g>
	</g>
	<g>
		<g>
			<path fill="#FFFFFF" d="M505.688,9.623c-0.193,1.041-0.391,2.154-0.27,3.215c0.116,1.026,0.529,1.807,0.895,2.758
				c0.133,0.344,0.435,0.299,0.563-0.012c0.169-0.402,0.129-0.884-0.023-1.281c-0.148-0.391-0.305-0.775-0.49-1.148
				c-0.116-0.229-0.084-0.146-0.144-0.508c-0.107-0.688,0.047-1.441,0.174-2.121c0.072-0.39,0.095-0.904-0.166-1.237
				C505.979,8.968,505.732,9.383,505.688,9.623L505.688,9.623z"/>
		</g>
	</g>
</g>
</svg>
