<?xml version="1.0" encoding="utf-8"?>
<!-- Generator: Adobe Illustrator 15.0.2, SVG Export Plug-In . SVG Version: 6.00 Build 0)  -->
<!DOCTYPE svg PUBLIC "-//W3C//DTD SVG 1.1 Basic//EN" "http://www.w3.org/Graphics/SVG/1.1/DTD/svg11-basic.dtd">
<svg version="1.1" baseProfile="basic" id="Layer_4"
	 xmlns="http://www.w3.org/2000/svg" xmlns:xlink="http://www.w3.org/1999/xlink" x="0px" y="0px" width="1024px"
	 height="586.471px" viewBox="0 0 1024 586.471" xml:space="preserve">
<g>
	<g opacity="0.7">
		<path fill="none" stroke="#FFFFFF" stroke-width="3" stroke-miterlimit="10" d="M175.602,444.469
			c0.195,1.421-0.057,2.228-0.483,2.286l-25.3,3.467c-0.711,0.098-1.331-0.204-2.042-1.168c-0.783-0.953-5.096-6.537-21.726-4.259
			c-15.635,2.144-20.312,13.976-19.234,21.837c2.142,15.629,17.073,15.222,26.454,13.936c6.041-0.827,7.479-5.656,7.288-9.682
			l-14.639,2.006c-1.209,0.166-2.198-0.182-2.328-1.129l-1.35-9.85c-0.26-1.895,0.626-2.306,1.691-2.452l68.082-9.33
			c1.422-0.195,2.159,0.96,2.289,1.907l1.221,8.902c0.285,2.082-0.671,2.504-2.092,2.699l-14.569,1.996l3.258,23.771
			c0.26,1.895-0.78,2.23-2.201,2.425l-18.833,2.581c-1.635,0.225-2.514,0.151-3.561-1.151l-4.927-5.308
			c-4.499,7.853-15.604,9.761-29.107,11.611c-4.193,0.574-53.023,6.688-57.683-27.313c-4.803-35.043,33.734-41.771,46.811-43.563
			c23.522-3.225,27.776-0.719,33.754,2.225l0.218-4.758c0.012-0.967,0.069-2.133,1.491-2.327l22.03-3.02
			c1.422-0.194,2.281,0.267,2.696,3.298L175.602,444.469z"/>
		<path fill="none" stroke="#FFFFFF" stroke-width="3" stroke-miterlimit="10" d="M287.998,477.021
			c-1.066,0.146-1.752-0.629-1.881-1.576l-1.896-13.827c-0.117-0.853,0.231-1.479,0.942-1.577l12.011-1.646l-5.31-7.571
			l-22.031,3.02l-3.076,8.721l13.289-1.822c0.782-0.106,1.215,0.413,1.293,0.981l1.934,14.111c0.156,1.138-0.037,1.839-0.748,1.937
			l-48.326,6.623c-1.634,0.224-2.868,0.199-3.05-1.125l-1.986-14.492c-0.143-1.041,0.135-1.658,1.201-1.805l14.568-1.996
			l20.526-55.207c0.516-1.52,1.361-2.213,2.215-2.33l32.69-4.48c1.422-0.195,2.417,0.73,2.903,1.629l35.817,48.45l15.706-2.153
			c1.208-0.165,1.441,1.539,1.637,2.961l1.648,12.028c0.155,1.136-0.504,1.612-1.783,1.787L287.998,477.021z M273.188,444.507
			l12.649-1.733l-7.074-10.417c-0.252-0.255-0.963-0.157-1.066,0.146L273.188,444.507z"/>
		<path fill="none" stroke="#FFFFFF" stroke-width="3" stroke-miterlimit="10" d="M471.691,379.478
			c1.848-0.253,17.289-1.693,23.926,0.773c4.731,1.765,11.86,5.708,12.912,13.379c0.974,7.104-5.549,13.402-12.021,17.956
			c6.107,2.829,9.946,4.425,13.416,13.889c0.744,1.731,1.552,2.874,2.688,2.719c1.492-0.204,5.239-2.455,4.383-8.705l-0.364-2.652
			c-0.077-0.568,0.155-0.986,0.866-1.084l8.386-1.149c0.497-0.068,0.834,0.272,0.989,1.409l1.402,10.229
			c1.389,10.135-8.758,19.05-13.945,19.761l-28.213,3.867c-4.619,0.633-9.682-4.076-11.111-6.582
			c-1.391-2.222-3.967-9.395-4.988-11.57c-3.287-7.076-10.445-6.48-12.08-6.257l-17.909,2.454l1.415,10.324l16.559-2.27
			c0.64-0.088,1.079-0.052,1.145,0.422l2.232,16.291c0.064,0.473-0.349,0.626-0.988,0.713l-68.723,9.419
			c-0.355,0.048-0.833-0.272-0.963-1.218l-2.129-15.533c-0.064-0.475,0.2-1.186,0.626-1.244l15.706-2.152l-4.933-35.99
			l-15.777,2.162c-0.64,0.088-1.092-0.043-1.261-1.274l-1.959-14.301c-0.092-0.663,0.102-1.366,0.6-1.435L471.691,379.478z
			 M436.484,402.058l1.454,10.607l21.676-2.971c4.62-0.633,10.052-2.729,9.546-6.423c-0.61-4.45-8.086-4.584-9.293-4.419
			L436.484,402.058z"/>
		<path fill="none" stroke="#FFFFFF" stroke-width="3" stroke-miterlimit="10" d="M571.605,382.768l-15.706,2.152
			c-0.64,0.087-1.467,0.395-1.648-0.933l-1.869-13.638c-0.104-0.758,0.024-1.934,1.161-2.089l76.326-10.461
			c3.34-0.458,50.365-1.789,54.531,28.613c4.154,30.309-32.43,40.725-48.35,42.906l-71.209,9.76
			c-1.422,0.195-2.984,0.409-3.31-1.958l-1.544-11.271c-0.195-1.422-0.3-3.24,1.122-3.436l15.635-2.143L571.605,382.768z
			 M612.918,415.315l13.076-1.793c8.173-1.119,19.65-8.771,17.897-21.557c-1.83-13.354-16.001-16.912-19.484-16.436l-16.629,2.279
			L612.918,415.315z"/>
		<path fill="none" stroke="#FFFFFF" stroke-width="3" stroke-miterlimit="10" d="M832.394,330.044
			c1.28-0.176,1.726,0.439,1.921,1.859l3.699,26.992c0.13,0.947,0.008,1.641-0.703,1.737l-24.447,3.351
			c-0.497,0.068-0.924,0.127-1.015-0.536l-1.636-11.934l-41.077,5.63l1.233,8.998l22.884-3.137c0.711-0.098,1.021,0.053,1.126,0.811
			l2.037,14.868c0.104,0.759-0.724,1.064-1.576,1.181l-22.174,3.039l1.312,9.566l41.646-5.707l-1.584-11.555
			c-0.116-0.852-0.047-1.923,1.09-2.078l26.011-3.565c0.497-0.067,0.847,0.366,1.028,1.692l3.829,27.939
			c0.091,0.664-0.103,1.365-1.452,1.55l-120.531,16.519c-0.923,0.127-1.764,0.338-1.919-0.799l-2.051-14.965
			c-0.117-0.852,0.206-1.668,0.846-1.756l16.133-2.211l-4.854-35.422l-16.204,2.221c-0.568,0.078-0.97,0.326-1.125-0.811
			l-2.22-16.195c-0.064-0.473,0.595-0.949,1.659-1.096L832.394,330.044z"/>
		<path fill="none" stroke="#FFFFFF" stroke-width="3" stroke-miterlimit="10" d="M932.654,316.303
			c0.712-0.097,1.559,0.269,2.359,0.835l42.176,36.193l-3.35-24.436l-15.636,2.143c-1.064,0.146-1.698-0.249-1.802-1.007
			l-1.999-14.585c-0.156-1.137,0.211-2.152,0.708-2.22l50.743-6.954c1.279-0.176,1.759,1.206,1.889,2.153l1.895,13.828
			c0.169,1.231-0.478,1.802-1.401,1.929l-15.138,2.074l6.932,50.576c0.221,1.609-0.004,2.605-0.928,2.731l-43.777,6
			c-0.498,0.068-1.292,0.081-1.868-0.418l-46.202-39.694l3.829,27.94l16.416-2.25c0.853-0.117,1.841,0.229,1.971,1.176l1.974,14.396
			c0.194,1.422-0.282,2.161-1.136,2.278l-51.808,7.101c-0.711,0.098-1.157-0.517-1.326-1.749l-1.96-14.301
			c-0.104-0.757,0.122-1.753,1.543-1.947l15.422-2.114l-4.829-35.232l-15.919,2.182c-0.497,0.068-1.246-0.119-1.441-1.54
			l-2.024-14.774c-0.13-0.947,0.516-1.518,1.581-1.664L932.654,316.303z"/>
	</g>
	<g>
		<path fill="#FFFFFF" d="M167.267,437.657c0.194,1.422-0.058,2.229-0.483,2.287l-25.301,3.467
			c-0.711,0.098-1.331-0.203-2.042-1.168c-0.783-0.953-5.096-6.537-21.726-4.258c-15.634,2.143-20.312,13.976-19.234,21.836
			c2.142,15.628,17.073,15.222,26.454,13.936c6.041-0.828,7.479-5.656,7.289-9.682l-14.64,2.006
			c-1.209,0.166-2.197-0.182-2.327-1.128l-1.35-9.851c-0.26-1.895,0.625-2.305,1.69-2.451l68.083-9.33
			c1.422-0.195,2.159,0.958,2.289,1.905l1.22,8.903c0.286,2.083-0.67,2.504-2.092,2.698l-14.568,1.997l3.258,23.772
			c0.26,1.894-0.78,2.229-2.202,2.425l-18.833,2.581c-1.635,0.224-2.513,0.15-3.561-1.153l-4.927-5.307
			c-4.499,7.853-15.604,9.762-29.106,11.612c-4.193,0.574-53.023,6.688-57.684-27.314c-4.803-35.043,33.734-41.771,46.811-43.563
			c23.523-3.225,27.776-0.719,33.755,2.225l0.217-4.758c0.013-0.967,0.07-2.133,1.491-2.327l22.031-3.02
			c1.421-0.194,2.281,0.267,2.696,3.298L167.267,437.657z"/>
		<path fill="#FFFFFF" d="M279.662,470.21c-1.065,0.146-1.751-0.628-1.881-1.575l-1.895-13.828
			c-0.117-0.853,0.231-1.479,0.941-1.576l12.011-1.646l-5.31-7.571l-22.031,3.02l-3.076,8.72l13.29-1.82
			c0.781-0.107,1.214,0.411,1.292,0.979l1.934,14.112c0.156,1.137-0.036,1.838-0.747,1.936l-48.326,6.623
			c-1.634,0.225-2.868,0.199-3.05-1.125l-1.986-14.492c-0.143-1.041,0.135-1.658,1.2-1.805l14.569-1.997l20.525-55.206
			c0.517-1.519,1.362-2.213,2.215-2.33l32.691-4.48c1.421-0.194,2.417,0.73,2.902,1.629l35.817,48.449l15.706-2.152
			c1.208-0.166,1.441,1.539,1.637,2.961l1.648,12.027c0.155,1.137-0.503,1.613-1.782,1.789L279.662,470.21z M264.853,437.696
			l12.65-1.734l-7.075-10.416c-0.252-0.255-0.963-0.157-1.065,0.146L264.853,437.696z"/>
		<path fill="#FFFFFF" d="M463.355,372.667c1.848-0.253,17.289-1.693,23.927,0.773c4.73,1.765,11.859,5.708,12.911,13.38
			c0.974,7.104-5.549,13.401-12.021,17.954c6.108,2.83,9.947,4.426,13.416,13.89c0.744,1.731,1.552,2.874,2.689,2.718
			c1.492-0.204,5.238-2.455,4.382-8.705l-0.363-2.65c-0.078-0.57,0.154-0.986,0.865-1.084l8.386-1.149
			c0.497-0.067,0.834,0.271,0.989,1.407l1.402,10.229c1.389,10.135-8.757,19.052-13.944,19.764l-28.214,3.866
			c-4.619,0.633-9.682-4.077-11.11-6.583c-1.391-2.223-3.968-9.396-4.989-11.57c-3.286-7.075-10.444-6.481-12.079-6.258
			l-17.909,2.455l1.414,10.323l16.559-2.27c0.641-0.087,1.079-0.052,1.145,0.423l2.232,16.291c0.064,0.473-0.348,0.627-0.988,0.714
			l-68.722,9.419c-0.355,0.049-0.834-0.273-0.964-1.22l-2.129-15.533c-0.064-0.474,0.2-1.185,0.626-1.243l15.706-2.152l-4.933-35.99
			l-15.776,2.162c-0.64,0.088-1.092-0.043-1.261-1.274l-1.96-14.302c-0.091-0.663,0.103-1.364,0.6-1.433L463.355,372.667z
			 M428.149,395.247l1.454,10.607l21.676-2.971c4.619-0.633,10.052-2.729,9.545-6.423c-0.609-4.45-8.085-4.585-9.293-4.419
			L428.149,395.247z"/>
		<path fill="#FFFFFF" d="M563.27,375.957l-15.706,2.152c-0.641,0.088-1.467,0.394-1.648-0.933l-1.869-13.638
			c-0.104-0.758,0.024-1.934,1.161-2.089l76.327-10.461c3.34-0.457,50.364-1.789,54.53,28.613
			c4.154,30.308-32.43,40.726-48.349,42.907l-71.21,9.759c-1.421,0.195-2.984,0.41-3.309-1.959l-1.545-11.27
			c-0.194-1.422-0.299-3.24,1.122-3.436l15.635-2.143L563.27,375.957z M604.582,408.505l13.077-1.793
			c8.173-1.119,19.649-8.771,17.897-21.558c-1.831-13.354-16.002-16.911-19.484-16.434l-16.63,2.278L604.582,408.505z"/>
		<path fill="#FFFFFF" d="M824.058,323.233c1.28-0.176,1.727,0.438,1.922,1.86l3.699,26.991c0.13,0.947,0.008,1.641-0.703,1.738
			l-24.448,3.35c-0.497,0.068-0.924,0.127-1.015-0.537l-1.636-11.933l-41.077,5.63l1.233,8.997l22.884-3.136
			c0.712-0.098,1.022,0.053,1.126,0.811l2.037,14.869c0.104,0.759-0.724,1.064-1.576,1.181l-22.174,3.039l1.312,9.565l41.646-5.707
			l-1.584-11.555c-0.116-0.852-0.046-1.923,1.091-2.079l26.01-3.564c0.498-0.068,0.848,0.365,1.029,1.692l3.829,27.939
			c0.091,0.663-0.103,1.365-1.453,1.551l-120.53,16.518c-0.924,0.127-1.764,0.339-1.919-0.798l-2.051-14.965
			c-0.117-0.853,0.206-1.669,0.846-1.757l16.132-2.211l-4.854-35.422l-16.204,2.221c-0.567,0.078-0.969,0.326-1.124-0.811
			l-2.22-16.195c-0.064-0.473,0.594-0.949,1.659-1.096L824.058,323.233z"/>
		<path fill="#FFFFFF" d="M924.319,309.493c0.711-0.098,1.558,0.268,2.359,0.834l42.175,36.193l-3.35-24.436l-15.635,2.143
			c-1.064,0.146-1.699-0.25-1.803-1.007l-1.999-14.585c-0.156-1.137,0.212-2.152,0.709-2.22l50.742-6.954
			c1.279-0.175,1.759,1.206,1.889,2.153l1.895,13.828c0.169,1.231-0.478,1.802-1.401,1.929l-15.137,2.075l6.932,50.576
			c0.221,1.61-0.005,2.606-0.929,2.732l-43.777,6c-0.497,0.068-1.292,0.081-1.868-0.419l-46.202-39.694l3.829,27.94l16.417-2.25
			c0.853-0.117,1.841,0.229,1.971,1.176l1.974,14.396c0.194,1.421-0.283,2.162-1.137,2.279l-51.808,7.1
			c-0.711,0.098-1.157-0.517-1.326-1.748l-1.96-14.301c-0.104-0.758,0.122-1.754,1.543-1.949l15.423-2.113l-4.829-35.233
			l-15.92,2.183c-0.496,0.067-1.245-0.118-1.44-1.539l-2.024-14.775c-0.13-0.947,0.515-1.518,1.581-1.664L924.319,309.493z"/>
	</g>
</g>
<g>
	<g opacity="0.7">
		<path fill="none" stroke="#FFFFFF" stroke-width="3" stroke-miterlimit="10" d="M169.98,312.685
			c-0.029,8.426-1.013,16.616-2.95,24.563c-1.941,7.95-5.122,15.185-9.549,21.698c-4.426,6.518-10.245,12.043-17.453,16.576
			c-7.212,4.535-16.036,7.517-26.479,8.947c-10.441,1.432-19.239,0.865-26.386-1.702c-7.149-2.565-12.936-6.5-17.354-11.806
			c-4.422-5.302-7.55-11.672-9.378-19.105c-1.832-7.43-2.736-15.36-2.707-23.787l0.242-96.886l14.357-1.968l-0.312,93.128
			c0.027,5.613,0.507,11.532,1.436,17.755c0.927,6.229,2.881,11.872,5.866,16.928c2.982,5.059,7.178,8.99,12.587,11.794
			c5.406,2.806,12.606,3.592,21.601,2.359c8.99-1.232,16.22-3.996,21.691-8.292c5.469-4.295,9.72-9.384,12.757-15.269
			c3.035-5.88,5.068-12.069,6.1-18.566c1.028-6.491,1.528-12.545,1.501-18.158l0.312-93.128l14.358-1.968L169.98,312.685z"/>
		<path fill="none" stroke="#FFFFFF" stroke-width="3" stroke-miterlimit="10" d="M209.596,210.402l44.38-6.082
			c5.363-0.735,10.996-0.877,16.896-0.432c5.896,0.449,11.265,1.892,16.107,4.331c4.841,2.439,8.821,6.143,11.939,11.108
			c3.119,4.968,4.644,11.519,4.577,19.652c-0.062,7.101-1.375,13.413-3.942,18.936c-2.567,5.526-5.987,10.24-10.251,14.149
			c-4.268,3.909-9.193,7.061-14.773,9.449c-5.584,2.393-11.42,4.004-17.511,4.838l-33.285,4.562l-0.207,74.496l-14.358,1.968
			L209.596,210.402z M223.685,277.621l32.632-4.472c4.059-0.556,8.056-1.583,11.989-3.083c3.929-1.499,7.419-3.528,10.468-6.089
			c3.047-2.558,5.529-5.744,7.445-9.553c1.916-3.809,2.887-8.298,2.919-13.476c0.048-5.029-0.893-9.186-2.817-12.469
			c-1.929-3.282-4.459-5.851-7.596-7.713c-3.136-1.859-6.731-3.029-10.786-3.508c-4.056-0.476-8.115-0.439-12.175,0.117
			l-31.762,4.353L223.685,277.621z"/>
		<path fill="none" stroke="#FFFFFF" stroke-width="3" stroke-miterlimit="10" d="M338.181,320.662
			c3.794,6.129,8.665,10.413,14.615,12.847c5.948,2.437,12.765,3.127,20.453,2.072c4.786-0.655,9.289-2.01,13.516-4.068
			c4.225-2.055,7.899-4.629,11.021-7.716c3.123-3.088,5.591-6.64,7.405-10.656c1.812-4.016,2.763-8.393,2.854-13.135
			c-0.012-5.463-1.125-9.819-3.342-13.062c-2.217-3.242-5.187-5.75-8.9-7.534c-3.718-1.779-7.968-3.154-12.756-4.125
			c-4.786-0.968-9.648-1.926-14.578-2.878c-4.934-0.948-9.788-2.129-14.56-3.545c-4.775-1.413-9.017-3.53-12.728-6.345
			c-3.71-2.816-6.701-6.579-8.973-11.293c-2.272-4.71-3.396-10.762-3.374-18.155c0.079-6.954,1.499-13.316,4.255-19.09
			c2.755-5.769,6.425-10.778,11.016-15.029c4.589-4.248,9.84-7.7,15.757-10.359c5.914-2.657,12.137-4.435,18.663-5.329
			c8.409-1.153,16.193-0.703,23.345,1.344c7.151,2.05,13.305,6.266,18.467,12.651l-12.482,10.797
			c-3.599-4.677-7.819-7.978-12.661-9.9c-4.844-1.92-10.604-2.426-17.272-1.512c-4.643,0.637-9.052,1.871-13.234,3.698
			c-4.182,1.831-7.85,4.179-11.002,7.048c-3.152,2.87-5.677,6.285-7.573,10.236c-1.896,3.955-2.87,8.448-2.918,13.476
			c-0.075,5.922,1.045,10.606,3.367,14.056c2.318,3.45,5.309,6.143,8.975,8.079c3.662,1.936,7.884,3.352,12.661,4.249
			c4.777,0.896,9.626,1.783,14.549,2.66c4.921,0.877,9.76,1.952,14.515,3.219c4.753,1.27,9.012,3.235,12.776,5.895
			c3.763,2.664,6.769,6.276,9.021,10.843c2.251,4.567,3.364,10.548,3.345,17.937c-0.062,7.101-1.43,13.571-4.101,19.401
			c-2.674,5.835-6.224,10.938-10.646,15.312c-4.425,4.374-9.519,7.919-15.277,10.626c-5.762,2.709-11.761,4.492-17.995,5.348
			c-10.153,1.391-19.534,0.866-28.141-1.574c-8.611-2.438-15.883-7.536-21.821-15.293L338.181,320.662z"/>
		<path fill="none" stroke="#FFFFFF" stroke-width="3" stroke-miterlimit="10" d="M489.625,185.323l-52.646,7.215l-0.048-13.291
			l119.65-16.398l0.049,13.291l-52.646,7.215l-0.478,143.683l-14.357,1.968L489.625,185.323z"/>
		<path fill="none" stroke="#FFFFFF" stroke-width="3" stroke-miterlimit="10" d="M612.707,155.156l14.794-2.027l64.399,148.09
			l-16.098,2.207l-16.699-39.378l-81.581,11.18l-17.455,44.06l-15.011,2.057L612.707,155.156z M619.423,170.193l-36.293,90.967
			l70.703-9.689L619.423,170.193z"/>
		<path fill="none" stroke="#FFFFFF" stroke-width="3" stroke-miterlimit="10" d="M714.52,141.203l14.358-1.968l-0.429,156.975
			l-14.359,1.968L714.52,141.203z"/>
		<path fill="none" stroke="#FFFFFF" stroke-width="3" stroke-miterlimit="10" d="M771.081,133.452l40.463-5.545
			c2.029-0.278,4.797-0.582,8.297-0.916c3.501-0.331,7.292-0.407,11.383-0.23c4.087,0.182,8.199,0.799,12.332,1.856
			c4.136,1.061,7.897,2.907,11.289,5.545c3.387,2.638,6.127,6.179,8.215,10.621c2.084,4.445,3.151,10.061,3.196,16.849
			c-0.004,7.536-1.272,13.916-3.806,19.139c-2.535,5.224-5.739,9.617-9.607,13.174c-3.873,3.561-8.139,6.4-12.796,8.514
			c-4.663,2.117-9.126,3.764-13.397,4.938l44.727,69.226l-16.316,2.236l-43.085-68.563l-26.758,3.667l-0.207,74.496l-14.358,1.968
			L771.081,133.452z M785.169,200.67l30.455-4.174c7.541-1.033,13.686-2.835,18.432-5.407c4.745-2.568,8.414-5.437,11.012-8.601
			c2.592-3.161,4.36-6.433,5.303-9.814c0.939-3.377,1.449-6.404,1.527-9.075c0.077-2.67-0.358-5.564-1.303-8.687
			c-0.946-3.118-2.73-5.904-5.354-8.353c-2.629-2.445-6.28-4.31-10.961-5.59c-4.685-1.277-10.797-1.401-18.336-0.368l-30.456,4.174
			L785.169,200.67z"/>
		<path fill="none" stroke="#FFFFFF" stroke-width="3" stroke-miterlimit="10" d="M903.798,243.145
			c3.794,6.129,8.665,10.414,14.614,12.847c5.948,2.437,12.765,3.127,20.454,2.073c4.785-0.656,9.289-2.011,13.517-4.069
			c4.222-2.054,7.896-4.628,11.021-7.716s5.59-6.639,7.405-10.656c1.812-4.017,2.763-8.393,2.854-13.135
			c-0.011-5.463-1.124-9.819-3.341-13.062c-2.219-3.242-5.187-5.75-8.9-7.534c-3.718-1.779-7.969-3.154-12.756-4.125
			c-4.787-0.968-9.648-1.926-14.579-2.877c-4.933-0.949-9.787-2.129-14.559-3.546c-4.776-1.413-9.017-3.529-12.728-6.345
			s-6.703-6.579-8.972-11.293c-2.274-4.709-3.397-10.761-3.376-18.154c0.079-6.954,1.5-13.316,4.254-19.09
			c2.756-5.769,6.427-10.778,11.019-15.029c4.587-4.248,9.838-7.699,15.756-10.359c5.914-2.656,12.136-4.434,18.662-5.328
			c8.41-1.153,16.193-0.703,23.346,1.344c7.151,2.05,13.306,6.266,18.467,12.651l-12.484,10.797
			c-3.598-4.677-7.816-7.977-12.659-9.9c-4.844-1.919-10.604-2.425-17.272-1.511c-4.645,0.636-9.053,1.871-13.234,3.698
			c-4.182,1.831-7.85,4.179-11.002,7.048c-3.153,2.87-5.677,6.285-7.573,10.236c-1.896,3.955-2.869,8.448-2.919,13.477
			c-0.074,5.922,1.045,10.606,3.367,14.056c2.318,3.45,5.31,6.143,8.975,8.078c3.663,1.936,7.884,3.353,12.662,4.249
			c4.776,0.896,9.626,1.784,14.549,2.66c4.919,0.877,9.76,1.952,14.515,3.219c4.752,1.271,9.012,3.236,12.777,5.896
			c3.761,2.664,6.767,6.276,9.021,10.843c2.25,4.567,3.364,10.548,3.345,17.937c-0.063,7.101-1.43,13.57-4.102,19.401
			c-2.673,5.834-6.223,10.938-10.645,15.311c-4.426,4.374-9.519,7.919-15.277,10.626c-5.762,2.708-11.762,4.493-17.995,5.347
			c-10.153,1.392-19.534,0.866-28.142-1.574c-8.611-2.438-15.882-7.537-21.821-15.293L903.798,243.145z"/>
	</g>
	<g>
		<path fill="#FFFFFF" d="M160.643,306.876c-0.029,8.426-1.013,16.617-2.951,24.563c-1.94,7.95-5.122,15.185-9.548,21.698
			c-4.426,6.518-10.245,12.043-17.454,16.577c-7.211,4.534-16.035,7.517-26.478,8.947s-19.239,0.864-26.386-1.702
			c-7.149-2.566-12.936-6.501-17.354-11.807c-4.421-5.302-7.549-11.672-9.378-19.104c-1.832-7.431-2.735-15.361-2.706-23.788
			l0.241-96.886l14.358-1.968l-0.313,93.128c0.028,5.613,0.508,11.532,1.437,17.756c0.926,6.228,2.881,11.871,5.866,16.927
			c2.982,5.06,7.178,8.99,12.587,11.795c5.406,2.805,12.605,3.592,21.6,2.359c8.991-1.232,16.221-3.997,21.692-8.293
			c5.468-4.295,9.72-9.384,12.757-15.268c3.035-5.881,5.067-12.07,6.1-18.566c1.028-6.493,1.528-12.545,1.501-18.159l0.312-93.128
			l14.358-1.968L160.643,306.876z"/>
		<path fill="#FFFFFF" d="M200.258,204.594l44.379-6.082c5.364-0.735,10.997-0.877,16.896-0.432
			c5.896,0.449,11.265,1.892,16.107,4.331c4.84,2.439,8.821,6.143,11.938,11.107c3.12,4.968,4.645,11.519,4.578,19.652
			c-0.062,7.1-1.376,13.413-3.942,18.936c-2.568,5.526-5.987,10.24-10.252,14.148c-4.268,3.909-9.192,7.061-14.772,9.45
			c-5.584,2.393-11.42,4.003-17.512,4.838l-33.284,4.562l-0.207,74.497l-14.358,1.969L200.258,204.594z M214.346,271.813
			l32.632-4.472c4.06-0.557,8.057-1.582,11.989-3.084c3.93-1.498,7.419-3.528,10.469-6.089c3.047-2.558,5.529-5.745,7.445-9.554
			c1.916-3.809,2.887-8.298,2.918-13.476c0.049-5.028-0.892-9.187-2.816-12.469c-1.929-3.282-4.459-5.851-7.596-7.713
			c-3.136-1.859-6.732-3.028-10.787-3.509c-4.055-0.476-8.115-0.439-12.174,0.117l-31.762,4.353L214.346,271.813z"/>
		<path fill="#FFFFFF" d="M328.843,314.854c3.794,6.129,8.665,10.414,14.615,12.846c5.948,2.437,12.764,3.127,20.452,2.073
			c4.786-0.656,9.29-2.011,13.517-4.068c4.224-2.056,7.898-4.63,11.021-7.717c3.123-3.087,5.591-6.64,7.405-10.656
			c1.812-4.016,2.763-8.392,2.854-13.135c-0.012-5.463-1.125-9.819-3.342-13.062c-2.218-3.243-5.187-5.751-8.901-7.535
			c-3.717-1.779-7.967-3.153-12.755-4.125c-4.787-0.968-9.648-1.926-14.579-2.878c-4.934-0.948-9.787-2.129-14.559-3.546
			c-4.775-1.413-9.017-3.529-12.728-6.345c-3.71-2.815-6.702-6.579-8.973-11.292c-2.272-4.71-3.396-10.761-3.374-18.155
			c0.078-6.954,1.499-13.316,4.254-19.089c2.756-5.77,6.426-10.778,11.017-15.029c4.589-4.248,9.84-7.7,15.757-10.36
			c5.914-2.656,12.137-4.435,18.663-5.329c8.409-1.153,16.193-0.702,23.345,1.344c7.15,2.05,13.305,6.266,18.467,12.651
			l-12.482,10.797c-3.6-4.677-7.819-7.977-12.661-9.9c-4.845-1.919-10.604-2.426-17.272-1.512
			c-4.644,0.637-9.053,1.872-13.234,3.698c-4.182,1.83-7.85,4.179-11.002,7.048c-3.153,2.87-5.678,6.285-7.574,10.236
			c-1.896,3.955-2.869,8.449-2.917,13.476c-0.075,5.922,1.044,10.606,3.366,14.056c2.318,3.45,5.31,6.143,8.976,8.078
			c3.662,1.937,7.884,3.352,12.661,4.249c4.776,0.896,9.626,1.784,14.549,2.661c4.92,0.877,9.76,1.952,14.515,3.219
			c4.753,1.27,9.011,3.235,12.776,5.895c3.762,2.664,6.769,6.276,9.021,10.843c2.25,4.568,3.364,10.548,3.345,17.938
			c-0.062,7.101-1.43,13.57-4.101,19.401c-2.674,5.834-6.224,10.937-10.646,15.31c-4.425,4.375-9.518,7.92-15.276,10.627
			c-5.762,2.709-11.761,4.493-17.995,5.348c-10.153,1.392-19.534,0.866-28.142-1.573c-8.61-2.438-15.882-7.536-21.821-15.294
			L328.843,314.854z"/>
		<path fill="#FFFFFF" d="M480.287,179.514l-52.646,7.215l-0.049-13.291l119.651-16.398l0.048,13.291l-52.646,7.215l-0.478,143.684
			l-14.357,1.969L480.287,179.514z"/>
		<path fill="#FFFFFF" d="M603.369,149.348l14.793-2.027l64.401,148.09l-16.099,2.207l-16.7-39.379l-81.58,11.181l-17.455,44.06
			l-15.011,2.057L603.369,149.348z M610.084,164.385l-36.292,90.968l70.702-9.689L610.084,164.385z"/>
		<path fill="#FFFFFF" d="M705.181,135.395l14.358-1.968l-0.428,156.975l-14.359,1.968L705.181,135.395z"/>
		<path fill="#FFFFFF" d="M761.742,127.643l40.464-5.545c2.028-0.278,4.797-0.581,8.297-0.915c3.5-0.331,7.291-0.407,11.382-0.23
			c4.087,0.181,8.199,0.798,12.334,1.855c4.135,1.062,7.896,2.908,11.287,5.545c3.388,2.638,6.127,6.179,8.216,10.621
			c2.084,4.445,3.151,10.061,3.195,16.849c-0.003,7.536-1.271,13.916-3.806,19.139c-2.535,5.224-5.738,9.617-9.606,13.174
			c-3.873,3.561-8.139,6.4-12.797,8.514c-4.662,2.117-9.126,3.765-13.397,4.939l44.728,69.226l-16.316,2.236l-43.084-68.563
			l-26.758,3.667l-0.207,74.497l-14.359,1.968L761.742,127.643z M775.83,194.862l30.457-4.174
			c7.539-1.033,13.685-2.835,18.431-5.408c4.746-2.568,8.414-5.437,11.011-8.601c2.594-3.16,4.361-6.433,5.304-9.814
			c0.939-3.377,1.449-6.404,1.527-9.074c0.077-2.67-0.357-5.565-1.302-8.688c-0.948-3.118-2.73-5.904-5.356-8.353
			c-2.627-2.445-6.279-4.31-10.961-5.59c-4.684-1.277-10.796-1.401-18.335-0.368l-30.457,4.174L775.83,194.862z"/>
		<path fill="#FFFFFF" d="M894.459,237.337c3.795,6.129,8.665,10.413,14.616,12.846c5.947,2.437,12.764,3.127,20.452,2.073
			c4.785-0.656,9.289-2.011,13.517-4.068c4.224-2.055,7.898-4.629,11.021-7.717c3.124-3.087,5.59-6.639,7.405-10.656
			c1.812-4.016,2.763-8.392,2.854-13.135c-0.012-5.463-1.124-9.82-3.342-13.062c-2.217-3.242-5.187-5.751-8.9-7.535
			c-3.717-1.779-7.967-3.153-12.756-4.125c-4.786-0.968-9.647-1.926-14.577-2.878c-4.934-0.948-9.788-2.129-14.56-3.546
			c-4.776-1.413-9.018-3.529-12.729-6.345c-3.71-2.815-6.702-6.579-8.972-11.292c-2.274-4.71-3.396-10.762-3.375-18.155
			c0.079-6.954,1.5-13.316,4.254-19.089c2.756-5.77,6.427-10.778,11.018-15.029c4.587-4.248,9.839-7.7,15.757-10.36
			c5.914-2.656,12.136-4.434,18.662-5.329c8.41-1.152,16.193-0.702,23.346,1.344c7.15,2.05,13.305,6.267,18.467,12.651
			l-12.483,10.798c-3.599-4.677-7.818-7.978-12.66-9.901c-4.845-1.919-10.604-2.425-17.272-1.511
			c-4.645,0.636-9.053,1.872-13.235,3.698c-4.182,1.83-7.849,4.179-11.002,7.048c-3.153,2.87-5.677,6.284-7.573,10.236
			c-1.896,3.955-2.869,8.449-2.918,13.476c-0.075,5.922,1.045,10.606,3.366,14.056c2.318,3.45,5.31,6.143,8.976,8.078
			c3.664,1.936,7.884,3.352,12.661,4.249c4.777,0.897,9.626,1.784,14.55,2.661c4.92,0.877,9.76,1.952,14.516,3.219
			c4.751,1.271,9.01,3.236,12.775,5.895c3.762,2.664,6.768,6.276,9.021,10.843c2.249,4.568,3.363,10.548,3.345,17.938
			c-0.062,7.101-1.431,13.57-4.102,19.401c-2.674,5.834-6.224,10.937-10.646,15.311c-4.426,4.375-9.519,7.919-15.277,10.627
			c-5.761,2.708-11.761,4.493-17.995,5.347c-10.152,1.391-19.533,0.866-28.141-1.573c-8.611-2.439-15.883-7.537-21.821-15.293
			L894.459,237.337z"/>
	</g>
</g>
<g>
	<g id="XMLID_4_">
		<g>
			<path fill="#FFFFFF" d="M539.543,74.089c-27.475,18.012-35.645-6.373-14.253-21.742c-10.726,1.919-16.478,7.966-17.253,18.131
				c-2.993-2.309-4.283-5.319-3.867-9.009c0.427-2.36,0.85-4.726,1.274-7.086c9.732-28.733,44.349-16.101,56.218-38.556
				C558.096,34.793,558.452,61.68,539.543,74.089z"/>
		</g>
		<g>
			<path fill="#FFFFFF" d="M505.443,54.382c9.732-28.733,44.349-16.101,56.218-38.556"/>
			<path fill="#FFFFFF" d="M504.169,61.466c0.428-2.36,0.85-4.723,1.274-7.083"/>
			<path fill="#FFFFFF" d="M561.661,15.826c-3.565,18.967-3.209,45.854-22.118,58.263c-27.475,18.012-35.642-6.373-14.246-21.742
				c-10.732,1.919-16.485,7.966-17.26,18.131c-2.993-2.309-4.283-5.319-3.867-9.009"/>
		</g>
	</g>
	<g id="XMLID_3_">
		<g>
			<path fill="#FFFFFF" d="M507.415,82.609c0.227-1.442-0.669-3.013-0.899-4.131c-3.011-7.91-8.32-12.24-18.085-13.883
				c-6.976-1.167-15.127,3.786-24.622,3.961c11.558,6.923,12.555,15.824,23.125,22.218c4.04,2.439,12.49,5.553,16.509,1.542
				c0.335-10.582-9.414-13.028-14.324-16.289c7.145,2.741,15.346,4.764,16.221,11.947C507.176,87.712,507.44,84.016,507.415,82.609z
				"/>
		</g>
		<g>
			<path fill="#FFFFFF" d="M506.513,78.479c-3.009-7.911-8.318-12.241-18.083-13.884c-6.978-1.167-15.127,3.786-24.625,3.96"/>
			<path fill="#FFFFFF" d="M507.415,82.609c0.227-1.442-0.669-3.013-0.899-4.131"/>
			<path fill="#FFFFFF" d="M463.809,68.557c11.558,6.923,12.557,15.827,23.125,22.218c4.042,2.44,12.49,5.553,16.509,1.545
				c0.335-10.585-9.414-13.032-14.324-16.291c7.145,2.74,15.346,4.764,16.218,11.947c1.841-0.262,2.106-3.962,2.079-5.37"/>
		</g>
	</g>
	<g>
		<g>
			<path fill="#FFFFFF" d="M508.31,73.099c-1.439,7.725-2.891,15.992-1.997,23.854c0.866,7.619,3.93,13.402,6.64,20.455
				c0.979,2.554,3.216,2.226,4.183-0.077c1.247-2.982,0.956-6.554-0.177-9.51c-1.106-2.889-2.258-5.749-3.643-8.515
				c-0.865-1.713-0.632-1.089-1.057-3.77c-0.809-5.107,0.348-10.703,1.283-15.743c0.538-2.884,0.697-6.709-1.229-9.182
				C510.463,68.245,508.642,71.314,508.31,73.099L508.31,73.099z"/>
		</g>
	</g>
</g>
<line opacity="0.5" fill="none" stroke="#FFFFFF" stroke-width="3" stroke-miterlimit="10" x1="71.315" y1="556.273" x2="1011.527" y2="427.422"/>
<line fill="none" stroke="#FFFFFF" stroke-width="3" stroke-miterlimit="10" x1="73.284" y1="570.64" x2="1013.496" y2="441.788"/>
<g opacity="0.5">
	<line fill="none" stroke="#FFFFFF" stroke-width="3" stroke-miterlimit="10" x1="572.187" y1="93.986" x2="958.574" y2="41.034"/>
	<line fill="none" stroke="#FFFFFF" stroke-width="3" stroke-miterlimit="10" x1="18.363" y1="169.885" x2="456.27" y2="109.872"/>
</g>
<g>
	<line fill="none" stroke="#FFFFFF" stroke-width="3" stroke-miterlimit="10" x1="570.489" y1="81.602" x2="956.877" y2="28.649"/>
	<line fill="none" stroke="#FFFFFF" stroke-width="3" stroke-miterlimit="10" x1="16.666" y1="157.501" x2="454.572" y2="97.488"/>
</g>
</svg>
