<?xml version="1.0" encoding="utf-8"?>
<!-- Generator: Adobe Illustrator 15.0.2, SVG Export Plug-In . SVG Version: 6.00 Build 0)  -->
<!DOCTYPE svg PUBLIC "-//W3C//DTD SVG 1.1 Basic//EN" "http://www.w3.org/Graphics/SVG/1.1/DTD/svg11-basic.dtd">
<svg version="1.1" baseProfile="basic" xmlns="http://www.w3.org/2000/svg" xmlns:xlink="http://www.w3.org/1999/xlink" x="0px"
	 y="0px" width="1024px" height="768px" viewBox="0 0 1024 768" xml:space="preserve">
<g id="Layer_1_copy" display="none">
	
		<text transform="matrix(0.994 -0.1097 0.1097 0.994 342.3071 949.668)" display="inline" opacity="0.35" font-family="'Avenir-LightOblique'" font-size="65.8696" letter-spacing="3">UPSTAIRS</text>
	<g display="inline">
		<path fill="#FFFFFF" d="M380.943,896.281l-0.838,29.053c-0.075,2.525-0.435,4.975-1.079,7.342
			c-0.645,2.369-1.656,4.513-3.035,6.432c-1.378,1.919-3.167,3.529-5.365,4.832c-2.198,1.304-4.868,2.128-8.011,2.475
			c-0.929,0.103-1.814,0.154-2.655,0.154c-2.001,0-3.749-0.291-5.244-0.873c-2.124-0.826-3.828-2.053-5.111-3.678
			s-2.171-3.559-2.661-5.803c-0.491-2.242-0.699-4.629-0.624-7.154l0.837-29.053l4.321-0.477l-0.829,27.925
			c-0.036,1.684,0.061,3.462,0.29,5.337c0.229,1.874,0.77,3.582,1.625,5.121c0.854,1.541,2.082,2.752,3.681,3.636
			c1.196,0.661,2.702,0.991,4.518,0.991c0.612,0,1.259-0.037,1.941-0.112c2.706-0.299,4.896-1.071,6.57-2.316
			c1.674-1.244,2.989-2.736,3.947-4.478c0.957-1.738,1.615-3.579,1.976-5.519c0.36-1.939,0.558-3.75,0.593-5.434l0.829-27.925
			L380.943,896.281 M381.976,895.161l-1.143,0.126l-4.321,0.477l-0.864,0.096l-0.026,0.869l-0.829,27.925
			c-0.035,1.629-0.229,3.403-0.577,5.28c-0.34,1.828-0.969,3.584-1.868,5.219c-0.884,1.607-2.118,3.006-3.667,4.157
			c-1.522,1.133-3.569,1.848-6.083,2.125c-0.643,0.071-1.259,0.106-1.832,0.106c-1.636,0-2.993-0.291-4.034-0.866
			c-1.446-0.8-2.523-1.861-3.291-3.246c-0.789-1.418-1.295-3.019-1.507-4.757c-0.222-1.819-0.317-3.566-0.283-5.194l0.829-27.917
			l0.034-1.149l-1.144,0.126l-4.321,0.477l-0.865,0.096l-0.025,0.869l-0.837,29.053c-0.078,2.594,0.14,5.083,0.646,7.397
			c0.52,2.381,1.479,4.47,2.854,6.209c1.391,1.76,3.252,3.103,5.534,3.989c1.604,0.624,3.49,0.941,5.606,0.941
			c0.873,0,1.803-0.055,2.765-0.16c3.271-0.361,6.101-1.238,8.411-2.608c2.308-1.369,4.215-3.088,5.667-5.109
			c1.442-2.006,2.515-4.278,3.188-6.752c0.662-2.434,1.036-4.981,1.113-7.575l0.838-29.053L381.976,895.161L381.976,895.161z"/>
		<path fill="#FFFFFF" d="M411.88,893.007c0.852,0,1.723,0.045,2.613,0.136c1.765,0.183,3.363,0.658,4.796,1.427
			c1.432,0.771,2.597,1.913,3.493,3.427s1.301,3.489,1.217,5.928c-0.075,2.129-0.519,4.012-1.332,5.648
			c-0.814,1.635-1.876,3.021-3.187,4.16c-1.31,1.139-2.812,2.045-4.504,2.719c-1.693,0.673-3.456,1.109-5.289,1.312l-10.018,1.104
			l-0.65,22.339l-4.322,0.478l1.369-47.071l13.356-1.474C410.223,893.051,411.042,893.007,411.88,893.007 M399.76,914.883
			l9.821-1.084c1.221-0.135,2.428-0.412,3.619-0.831c1.19-0.418,2.253-0.999,3.188-1.742c0.934-0.743,1.704-1.68,2.309-2.808
			c0.604-1.126,0.931-2.465,0.981-4.018c0.055-1.507-0.195-2.762-0.747-3.762c-0.552-0.998-1.29-1.789-2.216-2.372
			c-0.926-0.583-1.995-0.962-3.207-1.138c-0.685-0.099-1.373-0.148-2.061-0.148c-0.529,0-1.06,0.029-1.59,0.088l-9.559,1.054
			L399.76,914.883 M411.88,892.007L411.88,892.007c-0.871,0-1.735,0.046-2.567,0.138l-13.356,1.474l-0.864,0.096l-0.025,0.869
			l-1.369,47.071l-0.034,1.149l1.143-0.126l4.322-0.478l0.864-0.096l0.025-0.869l0.625-21.47l9.153-1.009
			c1.917-0.212,3.783-0.675,5.549-1.376c1.791-0.713,3.402-1.687,4.792-2.894c1.404-1.22,2.556-2.724,3.425-4.47
			c0.874-1.758,1.356-3.796,1.436-6.059c0.09-2.623-0.366-4.8-1.356-6.473c-0.986-1.665-2.291-2.943-3.88-3.798
			c-1.543-0.827-3.281-1.346-5.167-1.541C413.673,892.054,412.76,892.007,411.88,892.007L411.88,892.007z M401.269,899.021
			l8.696-0.959c0.492-0.055,0.99-0.082,1.481-0.082c0.638,0,1.283,0.047,1.918,0.139c1.067,0.154,2.015,0.488,2.817,0.994
			c0.787,0.495,1.4,1.152,1.874,2.009c0.46,0.835,0.67,1.926,0.622,3.242c-0.044,1.394-0.335,2.597-0.863,3.581
			c-0.537,1.002-1.227,1.843-2.05,2.498c-0.843,0.67-1.817,1.202-2.896,1.581c-1.115,0.393-2.258,0.654-3.398,0.78l-8.675,0.958
			L401.269,899.021L401.269,899.021z"/>
		<path fill="#FFFFFF" d="M452.389,887.324c1.705,0,3.31,0.237,4.813,0.71c2.128,0.672,3.94,1.985,5.438,3.94l-3.828,3.14
			c-1.042-1.433-2.282-2.454-3.718-3.07c-1.057-0.451-2.268-0.677-3.633-0.677c-0.492,0-1.003,0.029-1.535,0.088
			c-1.397,0.154-2.729,0.489-3.999,1.004c-1.269,0.517-2.387,1.191-3.354,2.027c-0.968,0.836-1.752,1.84-2.352,3.01
			c-0.6,1.17-0.927,2.51-0.981,4.018c-0.069,1.775,0.229,3.189,0.898,4.241c0.668,1.053,1.544,1.885,2.628,2.493
			c1.083,0.61,2.337,1.068,3.763,1.374c1.426,0.308,2.872,0.611,4.342,0.914c1.468,0.302,2.911,0.662,4.327,1.079
			c1.415,0.42,2.677,1.043,3.785,1.869c1.107,0.828,1.98,1.936,2.62,3.322c0.639,1.388,0.925,3.189,0.861,5.405
			c-0.075,2.13-0.536,4.06-1.383,5.786c-0.848,1.729-1.953,3.23-3.313,4.506c-1.361,1.277-2.917,2.301-4.665,3.066
			c-1.749,0.768-3.562,1.255-5.438,1.462c-0.907,0.1-1.792,0.15-2.655,0.15c-2.046,0-3.969-0.281-5.771-0.844
			c-2.563-0.8-4.704-2.386-6.423-4.759l4.214-3.248c1.089,1.868,2.516,3.191,4.281,3.968c1.328,0.586,2.811,0.878,4.45,0.878
			c0.539,0,1.094-0.031,1.667-0.095c1.44-0.159,2.801-0.53,4.085-1.113c1.282-0.583,2.405-1.327,3.366-2.228
			c0.961-0.9,1.729-1.946,2.305-3.137c0.575-1.189,0.895-2.496,0.959-3.917c0.04-1.638-0.259-2.954-0.898-3.942
			c-0.639-0.99-1.51-1.766-2.609-2.33c-1.101-0.563-2.365-1.008-3.793-1.338c-1.428-0.328-2.878-0.653-4.349-0.979
			c-1.472-0.322-2.918-0.716-4.337-1.178c-1.421-0.461-2.676-1.129-3.767-2.003s-1.958-2.026-2.602-3.458
			c-0.645-1.43-0.934-3.254-0.869-5.471c0.079-2.084,0.555-3.981,1.426-5.69c0.873-1.708,2.013-3.182,3.423-4.419
			c1.41-1.239,3.011-2.232,4.807-2.983c1.795-0.75,3.674-1.233,5.639-1.45C450.955,887.365,451.681,887.324,452.389,887.324
			 M452.389,886.324c-0.742,0-1.511,0.044-2.286,0.129c-2.05,0.227-4.04,0.738-5.915,1.521c-1.889,0.79-3.599,1.852-5.081,3.155
			c-1.497,1.312-2.726,2.899-3.653,4.715c-0.935,1.833-1.451,3.888-1.535,6.107c-0.069,2.37,0.252,4.358,0.957,5.92
			c0.705,1.568,1.677,2.856,2.888,3.827c1.181,0.946,2.555,1.678,4.083,2.174c1.452,0.473,2.943,0.877,4.432,1.203
			c1.466,0.324,2.914,0.649,4.339,0.977c1.345,0.311,2.544,0.732,3.562,1.254c0.951,0.487,1.679,1.137,2.225,1.981
			c0.525,0.812,0.774,1.948,0.739,3.376c-0.058,1.257-0.347,2.444-0.86,3.506c-0.519,1.075-1.222,2.031-2.088,2.843
			c-0.879,0.823-1.92,1.512-3.096,2.047c-1.182,0.536-2.454,0.883-3.781,1.029c-0.534,0.059-1.058,0.089-1.557,0.089
			c-1.493,0-2.854-0.267-4.046-0.793c-1.582-0.695-2.831-1.858-3.821-3.557l-0.573-0.982l-0.901,0.694l-4.214,3.248l-0.769,0.593
			l0.57,0.786c1.84,2.54,4.173,4.265,6.935,5.126c1.889,0.59,3.931,0.89,6.069,0.89c0.896,0,1.826-0.053,2.765-0.156
			c1.969-0.218,3.897-0.735,5.731-1.54c1.842-0.807,3.507-1.901,4.947-3.253c1.444-1.354,2.63-2.967,3.527-4.795
			c0.905-1.847,1.405-3.93,1.484-6.191c0.068-2.369-0.252-4.338-0.952-5.858c-0.708-1.535-1.694-2.781-2.93-3.705
			c-1.197-0.894-2.576-1.575-4.099-2.027c-1.444-0.425-2.927-0.795-4.41-1.1c-1.467-0.302-2.91-0.605-4.333-0.912
			c-1.322-0.283-2.493-0.71-3.483-1.268c-0.934-0.524-1.699-1.25-2.275-2.158c-0.554-0.871-0.804-2.104-0.744-3.666
			c0.049-1.357,0.342-2.567,0.872-3.601c0.539-1.05,1.25-1.962,2.116-2.709c0.879-0.759,1.915-1.384,3.078-1.858
			c1.178-0.478,2.434-0.793,3.731-0.936c0.492-0.055,0.972-0.082,1.425-0.082c1.222,0,2.312,0.2,3.24,0.597
			c1.263,0.542,2.375,1.463,3.302,2.738l0.623,0.857l0.82-0.672l3.828-3.14l0.748-0.613l-0.588-0.769
			c-1.617-2.112-3.613-3.554-5.93-4.286C455.906,886.579,454.186,886.324,452.389,886.324L452.389,886.324z"/>
		<path fill="#FFFFFF" d="M507.041,882.371l-0.09,3.986l-15.844,1.748l-1.278,43.084l-4.321,0.477l1.277-43.084l-15.844,1.747
			l0.09-3.986L507.041,882.371 M508.066,881.252l-1.135,0.125l-36.009,3.972l-0.87,0.097l-0.02,0.875l-0.09,3.986l-0.026,1.142
			l1.135-0.125l14.701-1.621l-1.243,41.935l-0.034,1.149l1.143-0.126l4.321-0.477l0.864-0.096l0.026-0.869l1.252-42.215l14.98-1.652
			l0.87-0.096l0.02-0.876l0.09-3.986L508.066,881.252L508.066,881.252z"/>
		<path fill="#FFFFFF" d="M531.658,879.654l18.143,44.919l-4.844,0.534l-4.697-11.941l-24.553,2.709l-5.582,13.074l-4.518,0.499
			l21.6-49.302L531.658,879.654 M517.5,911.7l21.278-2.347l-9.677-24.645L517.5,911.7 M532.302,878.577l-0.754,0.083l-4.451,0.492
			l-0.574,0.063l-0.231,0.529l-21.6,49.302l-0.694,1.585l1.72-0.189l4.518-0.499l0.581-0.064l0.229-0.537l5.353-12.537l23.212-2.561
			l4.417,11.229l0.28,0.712l0.76-0.084l4.844-0.534l1.312-0.145l-0.494-1.224l-18.143-44.92L532.302,878.577L532.302,878.577z
			 M519.097,910.518l9.963-23.179l8.311,21.164L519.097,910.518L519.097,910.518z"/>
		<path fill="#FFFFFF" d="M565.442,875.928l-1.368,47.07l-4.321,0.477l1.368-47.07L565.442,875.928 M566.476,874.808l-1.143,0.126
			l-4.321,0.477l-0.865,0.096l-0.025,0.869l-1.368,47.07l-0.033,1.149l1.143-0.126l4.321-0.477l0.865-0.096l0.025-0.869l1.368-47.07
			L566.476,874.808L566.476,874.808z"/>
		<path fill="#FFFFFF" d="M597.584,872.565c0.615,0,1.256,0.023,1.922,0.069c1.223,0.087,2.451,0.305,3.684,0.653
			c1.23,0.352,2.344,0.936,3.341,1.753c0.995,0.817,1.788,1.9,2.38,3.25c0.59,1.349,0.865,3.041,0.825,5.078
			c-0.061,2.26-0.491,4.163-1.292,5.709c-0.802,1.547-1.797,2.838-2.986,3.874s-2.49,1.855-3.904,2.452
			c-1.414,0.6-2.766,1.058-4.057,1.375l12.866,21.113l-4.91,0.541l-12.378-20.9l-8.054,0.889l-0.65,22.338l-4.321,0.477l1.368-47.07
			l12.178-1.344c0.61-0.067,1.442-0.137,2.495-0.208C596.57,872.582,597.068,872.565,597.584,872.565 M585.11,894.436l9.167-1.012
			c2.269-0.25,4.126-0.742,5.568-1.476c1.443-0.733,2.566-1.563,3.37-2.493c0.803-0.927,1.358-1.894,1.669-2.9
			c0.309-1.006,0.484-1.91,0.529-2.709c0.044-0.801-0.063-1.672-0.322-2.615s-0.771-1.793-1.539-2.548
			c-0.77-0.753-1.85-1.342-3.244-1.763c-0.874-0.264-1.922-0.396-3.141-0.396c-0.724,0-1.509,0.047-2.354,0.14l-9.166,1.012
			L585.11,894.436 M597.584,871.565c-0.536,0-1.062,0.018-1.562,0.051c-1.063,0.072-1.917,0.144-2.537,0.212l-12.178,1.344
			l-0.865,0.096l-0.025,0.869l-1.368,47.07l-0.033,1.149l1.143-0.126l4.321-0.477l0.865-0.096l0.025-0.869l0.625-21.469l6.548-0.723
			l12.049,20.346l0.329,0.555l0.641-0.07l4.91-0.541l1.562-0.172l-0.818-1.343l-12.177-19.982c0.941-0.288,1.913-0.645,2.904-1.064
			c1.498-0.633,2.901-1.514,4.171-2.619c1.278-1.114,2.36-2.517,3.217-4.168c0.867-1.674,1.34-3.74,1.404-6.143
			c0.042-2.179-0.264-4.028-0.909-5.505c-0.653-1.49-1.548-2.708-2.661-3.622c-1.099-0.901-2.344-1.555-3.701-1.942
			c-1.294-0.366-2.602-0.598-3.887-0.688C598.889,871.59,598.219,871.565,597.584,871.565L597.584,871.565z M586.62,878.574
			l8.304-0.916c0.805-0.089,1.56-0.134,2.244-0.134c1.115,0,2.075,0.119,2.853,0.353c1.228,0.371,2.181,0.883,2.833,1.521
			c0.643,0.633,1.061,1.319,1.273,2.098c0.229,0.835,0.326,1.607,0.289,2.296c-0.041,0.718-0.205,1.549-0.487,2.471
			c-0.268,0.868-0.762,1.723-1.469,2.539c-0.714,0.825-1.746,1.585-3.067,2.256c-1.328,0.676-3.086,1.138-5.225,1.373l-8.021,0.886
			L586.62,878.574L586.62,878.574z"/>
		<path fill="#FFFFFF" d="M638.982,866.74c1.705,0,3.311,0.237,4.814,0.711c2.128,0.671,3.94,1.984,5.438,3.939l-3.828,3.14
			c-1.042-1.433-2.281-2.454-3.719-3.07c-1.057-0.451-2.268-0.677-3.633-0.677c-0.492,0-1.004,0.029-1.535,0.088
			c-1.396,0.154-2.729,0.489-3.998,1.004c-1.268,0.517-2.387,1.191-3.354,2.027c-0.969,0.836-1.753,1.84-2.353,3.01
			c-0.601,1.17-0.928,2.51-0.981,4.018c-0.07,1.775,0.229,3.189,0.898,4.241c0.668,1.054,1.543,1.885,2.628,2.493
			c1.083,0.61,2.337,1.068,3.763,1.375s2.873,0.611,4.343,0.913c1.468,0.302,2.911,0.663,4.327,1.079
			c1.414,0.42,2.677,1.043,3.784,1.869c1.107,0.828,1.979,1.936,2.62,3.322c0.639,1.389,0.925,3.189,0.861,5.405
			c-0.075,2.13-0.537,4.06-1.383,5.786c-0.848,1.729-1.953,3.23-3.314,4.507s-2.916,2.3-4.664,3.065
			c-1.75,0.768-3.562,1.255-5.439,1.462c-0.906,0.1-1.792,0.15-2.654,0.15c-2.046,0-3.97-0.281-5.771-0.844
			c-2.562-0.8-4.703-2.386-6.423-4.759l4.214-3.248c1.09,1.869,2.516,3.191,4.281,3.968c1.328,0.586,2.812,0.878,4.45,0.878
			c0.539,0,1.095-0.031,1.667-0.095c1.44-0.159,2.801-0.529,4.086-1.112c1.281-0.584,2.404-1.328,3.365-2.229
			s1.729-1.945,2.305-3.137c0.574-1.189,0.895-2.495,0.959-3.917c0.041-1.638-0.259-2.953-0.898-3.942
			c-0.639-0.99-1.51-1.766-2.609-2.33c-1.101-0.562-2.364-1.008-3.793-1.338c-1.428-0.328-2.877-0.652-4.349-0.979
			c-1.472-0.322-2.918-0.715-4.337-1.178c-1.422-0.461-2.677-1.129-3.768-2.003c-1.09-0.874-1.957-2.026-2.602-3.458
			c-0.645-1.43-0.934-3.254-0.868-5.471c0.079-2.084,0.555-3.981,1.427-5.69c0.872-1.708,2.012-3.182,3.422-4.419
			c1.41-1.239,3.012-2.232,4.807-2.982c1.795-0.751,3.675-1.234,5.639-1.451C637.549,866.781,638.274,866.74,638.982,866.74
			 M638.982,865.74c-0.741,0-1.511,0.044-2.285,0.129c-2.052,0.227-4.042,0.739-5.915,1.522c-1.888,0.789-3.597,1.851-5.081,3.154
			c-1.496,1.312-2.726,2.899-3.652,4.715c-0.935,1.832-1.451,3.887-1.535,6.107c-0.07,2.369,0.252,4.358,0.955,5.92
			c0.707,1.569,1.679,2.857,2.888,3.827c1.183,0.947,2.557,1.679,4.085,2.174c1.441,0.47,2.933,0.875,4.432,1.203
			c1.467,0.325,2.913,0.649,4.339,0.977c1.342,0.311,2.541,0.732,3.562,1.254c0.951,0.488,1.679,1.137,2.224,1.981
			c0.526,0.814,0.775,1.949,0.739,3.375c-0.057,1.258-0.347,2.444-0.859,3.508c-0.519,1.072-1.221,2.028-2.088,2.842
			c-0.879,0.823-1.92,1.512-3.097,2.048c-1.18,0.535-2.452,0.882-3.78,1.028c-0.534,0.059-1.058,0.089-1.558,0.089
			c-1.492,0-2.854-0.267-4.047-0.793c-1.581-0.695-2.831-1.858-3.82-3.557l-0.573-0.982l-0.901,0.694l-4.214,3.248l-0.77,0.593
			l0.57,0.786c1.841,2.54,4.174,4.265,6.935,5.126c1.889,0.59,3.931,0.89,6.069,0.89c0.896,0,1.825-0.053,2.764-0.156
			c1.969-0.218,3.896-0.735,5.731-1.54c1.841-0.807,3.505-1.9,4.946-3.252c1.445-1.354,2.633-2.969,3.528-4.796
			c0.905-1.849,1.405-3.931,1.484-6.191c0.068-2.368-0.252-4.337-0.952-5.858c-0.709-1.535-1.694-2.781-2.93-3.705
			c-1.196-0.893-2.575-1.575-4.098-2.027c-1.455-0.427-2.938-0.797-4.411-1.1c-1.467-0.301-2.911-0.605-4.334-0.911
			c-1.32-0.284-2.492-0.711-3.481-1.269c-0.947-0.531-1.69-1.236-2.274-2.157c-0.556-0.874-0.806-2.106-0.744-3.666
			c0.049-1.358,0.342-2.568,0.872-3.601c0.539-1.052,1.251-1.963,2.116-2.71c0.877-0.758,1.912-1.383,3.077-1.858
			c1.179-0.478,2.435-0.793,3.73-0.936c0.493-0.055,0.973-0.082,1.426-0.082c1.222,0,2.312,0.2,3.24,0.597
			c1.263,0.541,2.375,1.463,3.303,2.738l0.623,0.857l0.819-0.672l3.828-3.14l0.748-0.613l-0.588-0.769
			c-1.618-2.112-3.613-3.554-5.931-4.285C642.501,865.995,640.78,865.74,638.982,865.74L638.982,865.74z"/>
	</g>
	
		<text transform="matrix(0.994 -0.1097 0.1097 0.994 340.3057 947.666)" display="inline" font-family="'Avenir-LightOblique'" font-size="65.8696" letter-spacing="3">UPSTAIRS</text>
	
		<text transform="matrix(0.6442 -0.0711 0.1097 0.994 353.2002 985.5146)" display="inline" opacity="0.3" font-family="'BlackoakStd'" font-size="33.6349" letter-spacing="15.43">GARDEN</text>
	<g display="inline">
		<path fill="none" stroke="#FFFFFF" stroke-width="2" stroke-miterlimit="10" d="M383.332,963.061
			c0.055,0.5-0.023,0.779-0.153,0.795l-7.716,0.851c-0.217,0.024-0.405-0.091-0.619-0.44c-0.236-0.346-1.534-2.367-6.605-1.809
			c-4.768,0.526-6.226,4.612-5.92,7.387c0.608,5.516,5.157,5.589,8.019,5.273c1.842-0.203,2.293-1.877,2.248-3.293l-4.465,0.493
			c-0.369,0.04-0.669-0.097-0.706-0.431l-0.383-3.477c-0.074-0.668,0.197-0.801,0.522-0.836l20.763-2.291
			c0.433-0.047,0.654,0.368,0.691,0.703l0.347,3.143c0.081,0.734-0.211,0.869-0.645,0.917l-4.443,0.49l0.925,8.389
			c0.074,0.669-0.244,0.772-0.677,0.82l-5.744,0.634c-0.499,0.055-0.766,0.016-1.081-0.457l-1.485-1.934
			c-1.393,2.691-4.781,3.201-8.899,3.655c-1.278,0.141-16.168,1.579-17.492-10.421c-1.365-12.369,10.392-14.172,14.38-14.611
			c7.174-0.791,8.462,0.148,10.275,1.269l0.079-1.667c0.007-0.34,0.027-0.747,0.461-0.795l6.719-0.741
			c0.434-0.048,0.694,0.126,0.812,1.196L383.332,963.061z"/>
		<path fill="none" stroke="#FFFFFF" stroke-width="2" stroke-miterlimit="10" d="M419.632,975.871
			c-0.325,0.035-0.532-0.246-0.568-0.58l-0.539-4.881c-0.033-0.301,0.075-0.516,0.292-0.54l3.663-0.404l-1.596-2.733l-6.719,0.742
			l-0.961,3.015l4.053-0.447c0.238-0.026,0.369,0.163,0.391,0.364l0.549,4.98c0.044,0.4-0.017,0.645-0.234,0.668l-14.738,1.626
			c-0.499,0.056-0.875,0.028-0.926-0.439l-0.564-5.114c-0.041-0.368,0.046-0.58,0.371-0.616l4.443-0.49l6.407-19.079
			c0.162-0.524,0.421-0.756,0.681-0.785l9.969-1.1c0.434-0.047,0.734,0.291,0.88,0.613l10.773,17.521l4.79-0.528
			c0.368-0.04,0.435,0.562,0.49,1.063l0.468,4.244c0.044,0.402-0.157,0.56-0.547,0.603L419.632,975.871z M415.213,964.245
			l3.857-0.426l-2.125-3.757c-0.076-0.094-0.292-0.07-0.325,0.036L415.213,964.245z"/>
		<path fill="none" stroke="#FFFFFF" stroke-width="2" stroke-miterlimit="10" d="M478.015,944.055
			c0.563-0.062,5.271-0.345,7.286,0.617c1.436,0.688,3.596,2.174,3.895,4.883c0.276,2.508-1.728,4.622-3.711,6.127
			c1.852,1.08,3.017,1.697,4.047,5.068c0.222,0.619,0.465,1.031,0.812,0.994c0.455-0.051,1.603-0.787,1.359-2.993l-0.104-0.936
			c-0.022-0.2,0.05-0.344,0.267-0.368l2.557-0.281c0.152-0.018,0.254,0.107,0.298,0.509l0.398,3.609
			c0.395,3.577-2.72,6.56-4.303,6.734l-8.604,0.949c-1.409,0.155-2.938-1.571-3.365-2.472c-0.417-0.8-1.182-3.354-1.487-4.132
			c-0.981-2.53-3.164-2.425-3.662-2.37l-5.462,0.602l0.401,3.643l5.051-0.557c0.194-0.021,0.328-0.002,0.347,0.166l0.634,5.748
			c0.019,0.168-0.108,0.216-0.303,0.237l-20.958,2.312c-0.108,0.013-0.253-0.107-0.29-0.441l-0.604-5.482
			c-0.019-0.166,0.064-0.413,0.194-0.428l4.79-0.527l-1.401-12.703l-4.812,0.531c-0.195,0.021-0.333-0.03-0.381-0.466l-0.557-5.047
			c-0.026-0.234,0.035-0.478,0.187-0.494L478.015,944.055z M467.229,951.469l0.413,3.744l6.61-0.729
			c1.408-0.155,3.069-0.812,2.925-2.115c-0.173-1.57-2.45-1.727-2.818-1.687L467.229,951.469z"/>
		<path fill="none" stroke="#FFFFFF" stroke-width="2" stroke-miterlimit="10" d="M510.596,946.416l-4.79,0.527
			c-0.195,0.021-0.448,0.118-0.499-0.35l-0.531-4.814c-0.029-0.268,0.013-0.678,0.359-0.716l23.277-2.567
			c1.019-0.113,15.346,0.1,16.529,10.829c1.18,10.696-9.992,13.825-14.848,14.36l-21.717,2.396c-0.433,0.048-0.91,0.101-1.002-0.735
			l-0.439-3.978c-0.055-0.502-0.082-1.142,0.353-1.189l4.768-0.526L510.596,946.416z M523.088,958.436l3.988-0.439
			c2.492-0.275,6.009-2.794,5.511-7.308c-0.52-4.713-4.826-6.167-5.888-6.05l-5.072,0.561L523.088,958.436z"/>
		<path fill="none" stroke="#FFFFFF" stroke-width="2" stroke-miterlimit="10" d="M592.334,931.444
			c0.391-0.043,0.525,0.179,0.58,0.679l1.051,9.527c0.037,0.336-0.002,0.576-0.219,0.6l-7.455,0.822
			c-0.152,0.018-0.283,0.031-0.309-0.201l-0.465-4.213l-12.526,1.381l0.351,3.176l6.979-0.77c0.217-0.023,0.311,0.034,0.34,0.301
			l0.579,5.249c0.03,0.268-0.223,0.361-0.483,0.39l-6.762,0.746l0.373,3.377l12.7-1.4l-0.45-4.078
			c-0.033-0.301-0.009-0.676,0.338-0.713l7.932-0.876c0.152-0.017,0.258,0.142,0.31,0.608l1.088,9.861
			c0.025,0.234-0.036,0.478-0.446,0.523l-36.759,4.055c-0.282,0.031-0.538,0.093-0.583-0.309l-0.582-5.281
			c-0.033-0.301,0.067-0.582,0.263-0.604l4.92-0.543l-1.38-12.502l-4.941,0.545c-0.174,0.02-0.296,0.101-0.34-0.301l-0.631-5.716
			c-0.019-0.167,0.184-0.325,0.509-0.36L592.334,931.444z"/>
		<path fill="none" stroke="#FFFFFF" stroke-width="2" stroke-miterlimit="10" d="M625.069,927.833
			c0.216-0.024,0.474,0.116,0.716,0.326l12.744,13.312l-0.951-8.624l-4.768,0.525c-0.325,0.036-0.518-0.112-0.547-0.379
			l-0.568-5.148c-0.043-0.401,0.071-0.752,0.223-0.768l15.475-1.707c0.391-0.043,0.532,0.447,0.569,0.781l0.538,4.881
			c0.049,0.434-0.15,0.626-0.432,0.657l-4.617,0.509l1.969,17.85c0.063,0.57-0.008,0.916-0.289,0.947l-13.352,1.473
			c-0.151,0.016-0.393,0.01-0.567-0.175l-13.961-14.6l1.088,9.861l5.007-0.552c0.26-0.029,0.56,0.107,0.597,0.441l0.561,5.08
			c0.056,0.502-0.093,0.756-0.353,0.785l-15.8,1.742c-0.217,0.023-0.351-0.198-0.399-0.633l-0.557-5.048
			c-0.029-0.267,0.043-0.614,0.477-0.661l4.703-0.52l-1.372-12.434l-4.854,0.535c-0.152,0.017-0.38-0.061-0.436-0.561l-0.575-5.217
			c-0.036-0.332,0.161-0.523,0.486-0.56L625.069,927.833z"/>
	</g>
	
		<text transform="matrix(0.6442 -0.0711 0.1097 0.994 350.1978 983.5137)" display="inline" font-family="'BlackoakStd'" font-size="33.6349" letter-spacing="15.43">GARDEN</text>
	
		<line display="inline" fill="none" stroke="#000000" stroke-width="2" stroke-miterlimit="10" x1="345.971" y1="1004.943" x2="659.812" y2="967.506"/>
	
		<line display="inline" fill="none" stroke="#000000" stroke-width="2" stroke-miterlimit="10" x1="514.412" y1="857.354" x2="658.22" y2="840.057"/>
	
		<line display="inline" fill="none" stroke="#000000" stroke-width="2" stroke-miterlimit="10" x1="344.378" y1="877.494" x2="464.718" y2="863.139"/>
	<g display="inline">
		<path d="M505.671,869.781c-7.292-0.002-22.665-7.369-23.316-7.682l-1.421-0.686l1.226-0.992
			c0.636-0.516,15.647-12.627,21.87-13.373c0.401-0.048,0.803-0.072,1.193-0.072c5.69,0,9.29,5.206,9.905,10.348
			c0.346,2.886-0.074,5.628-1.183,7.721c-1.41,2.664-3.9,4.281-7.2,4.676C506.41,869.762,506.053,869.781,505.671,869.781
			L505.671,869.781z"/>
		<path fill="#FFFFFF" d="M505.223,847.977c5.34,0,8.378,4.996,8.912,9.467c0.571,4.766-0.93,10.497-7.509,11.285
			c-0.298,0.035-0.616,0.053-0.955,0.053c-7.147,0-22.882-7.583-22.882-7.583s15.352-12.437,21.359-13.156
			C504.517,847.998,504.874,847.977,505.223,847.977 M505.223,845.977c-0.43,0-0.871,0.027-1.312,0.08
			c-6.396,0.766-20.764,12.277-22.381,13.588l-2.452,1.986l2.842,1.369c0.659,0.318,16.231,7.781,23.75,7.781
			c0.421,0,0.823-0.023,1.193-0.067c3.64-0.437,6.395-2.234,7.965-5.2c1.203-2.271,1.661-5.223,1.291-8.309
			C515.453,851.626,511.496,845.977,505.223,845.977L505.223,845.977z"/>
	</g>
	<path display="inline" fill="#FFFFFF" d="M504.49,853.01l6.206,4.082c0.129,0.084,0.212,0.204,0.273,0.335
		c0.015,0.032,0.02,0.067,0.032,0.099c0.015,0.048,0.042,0.09,0.048,0.139c0,0.006-0.001,0.012-0.001,0.017
		c0.002,0.007,0.004,0.011,0.004,0.017c0,0,0,0,0.001,0.002c0.01,0.074-0.007,0.146-0.018,0.218
		c-0.001,0.007-0.001,0.014-0.001,0.021c-0.007,0.028-0.005,0.058-0.012,0.085c-0.009,0.027-0.028,0.049-0.038,0.074
		c-0.033,0.078-0.07,0.149-0.126,0.213c-0.006,0.009-0.006,0.02-0.015,0.027l-5.065,5.43c-0.3,0.324-0.806,0.341-1.128,0.04
		c-0.321-0.302-0.34-0.804-0.039-1.126l3.578-3.836l-5.032,0.603c-0.006,0.007-0.008,0.016-0.014,0.021l-3.346,3.585
		c-0.301,0.321-0.805,0.339-1.127,0.039c-0.324-0.3-0.34-0.805-0.038-1.127l2.076-2.226l-3.886,0.466l-2.036,2.184
		c-0.301,0.321-0.807,0.34-1.129,0.039c-0.323-0.301-0.338-0.806-0.04-1.126l0.751-0.804l-4.09,0.49
		c-0.437,0.053-0.835-0.26-0.886-0.697c-0.053-0.438,0.259-0.834,0.695-0.887l4.132-0.494l-0.964-0.635
		c-0.366-0.242-0.469-0.734-0.228-1.104c0.242-0.367,0.736-0.471,1.104-0.228l2.544,1.673l3.884-0.466l-2.589-1.701
		c-0.367-0.24-0.472-0.734-0.229-1.104c0.242-0.367,0.735-0.471,1.104-0.229l4.099,2.691c0.019,0.014,0.029,0.035,0.049,0.051
		l5.046-0.604l-4.428-2.915c-0.368-0.242-0.469-0.735-0.229-1.104C503.629,852.869,504.123,852.768,504.49,853.01z"/>
</g>
<g id="Layer_2" display="none">
	<rect display="inline" fill="#B3B540" width="1024" height="768"/>
	<circle display="inline" fill="#B3B540" cx="509.091" cy="367.591" r="193.49"/>
</g>
<g id="Layer_3">
	
		<text transform="matrix(0.994 -0.1097 0.1097 0.994 220.106 424.2598)" opacity="0.35" fill="#FFFFFF" font-family="'Avenir-LightOblique'" font-size="120.6483" letter-spacing="6">UPSTAIRS</text>
	<g>
		<path fill="#B3B540" d="M290.874,326.477l-1.535,53.214c-0.138,4.625-0.797,9.112-1.976,13.448
			c-1.181,4.339-3.033,8.265-5.559,11.78c-2.524,3.515-5.801,6.464-9.826,8.851c-4.026,2.388-8.916,3.897-14.672,4.532
			c-1.702,0.188-3.323,0.281-4.861,0.281c-3.666,0-6.868-0.532-9.606-1.598c-3.891-1.514-7.011-3.76-9.362-6.736
			s-3.977-6.519-4.874-10.629c-0.899-4.106-1.281-8.479-1.142-13.104l1.534-53.214l7.915-0.873l-1.519,51.148
			c-0.065,3.083,0.112,6.341,0.531,9.775c0.418,3.433,1.41,6.562,2.977,9.38c1.565,2.823,3.813,5.041,6.743,6.66
			c2.19,1.21,4.949,1.815,8.274,1.815c1.121,0,2.306-0.068,3.556-0.206c4.956-0.547,8.968-1.962,12.034-4.243
			c3.067-2.278,5.475-5.012,7.229-8.201c1.752-3.184,2.958-6.556,3.619-10.107c0.659-3.553,1.021-6.869,1.086-9.953l1.519-51.147
			L290.874,326.477 M292.939,324.237l-2.285,0.252l-7.916,0.873l-1.728,0.19l-0.052,1.738l-1.519,51.147
			c-0.063,2.979-0.418,6.219-1.054,9.647c-0.62,3.331-1.766,6.53-3.404,9.509c-1.607,2.923-3.852,5.466-6.67,7.56
			c-2.765,2.058-6.485,3.355-11.06,3.86c-1.171,0.129-2.294,0.194-3.337,0.194c-2.967,0-5.426-0.526-7.307-1.566
			c-2.621-1.448-4.571-3.371-5.961-5.879c-1.433-2.578-2.355-5.488-2.741-8.652c-0.406-3.324-0.58-6.518-0.517-9.49l1.518-51.131
			l0.068-2.3l-2.287,0.252l-7.915,0.873l-1.73,0.19l-0.05,1.74l-1.534,53.214c-0.143,4.764,0.256,9.337,1.188,13.589
			c0.957,4.386,2.726,8.235,5.258,11.44c2.564,3.247,5.999,5.724,10.207,7.361c2.958,1.15,6.434,1.733,10.332,1.733
			c1.604,0,3.314-0.099,5.081-0.293c6.015-0.663,11.221-2.278,15.473-4.8c4.249-2.52,7.758-5.684,10.431-9.404
			c2.653-3.692,4.626-7.872,5.864-12.422c1.215-4.471,1.903-9.151,2.045-13.914l1.535-53.216L292.939,324.237L292.939,324.237z"/>
		<path fill="#B3B540" d="M347.539,320.479c1.56,0,3.155,0.083,4.786,0.25c3.232,0.334,6.159,1.205,8.784,2.613
			c2.623,1.411,4.757,3.504,6.398,6.276s2.382,6.391,2.229,10.857c-0.137,3.899-0.95,7.348-2.439,10.346
			c-1.491,2.994-3.436,5.534-5.836,7.62c-2.399,2.086-5.15,3.746-8.25,4.98c-3.101,1.232-6.33,2.032-9.688,2.402l-18.349,2.023
			l-1.19,40.917l-7.916,0.874l2.507-86.216l24.463-2.699C344.504,320.56,346.005,320.479,347.539,320.479 M325.339,360.548
			l17.989-1.986c2.237-0.247,4.447-0.754,6.629-1.522c2.18-0.766,4.126-1.83,5.838-3.191c1.71-1.361,3.121-3.077,4.228-5.143
			c1.106-2.062,1.706-4.515,1.797-7.359c0.1-2.76-0.357-5.058-1.367-6.89c-1.011-1.828-2.363-3.276-4.06-4.345
			c-1.696-1.067-3.653-1.762-5.874-2.083c-1.255-0.181-2.514-0.272-3.775-0.272c-0.97,0-1.94,0.054-2.913,0.161l-17.508,1.93
			L325.339,360.548 M347.54,318.479L347.54,318.479c-1.602,0-3.19,0.085-4.721,0.254l-24.463,2.699l-1.729,0.19l-0.05,1.739
			l-2.507,86.216l-0.067,2.299l2.285-0.252l7.916-0.874l1.729-0.191l0.05-1.738l1.14-39.178l16.619-1.833
			c3.525-0.389,6.959-1.241,10.207-2.532c3.298-1.313,6.267-3.105,8.824-5.329c2.588-2.249,4.713-5.02,6.315-8.237
			c1.611-3.243,2.501-7,2.647-11.167c0.167-4.837-0.676-8.855-2.506-11.946c-1.821-3.077-4.234-5.439-7.172-7.019
			c-2.846-1.527-6.05-2.482-9.526-2.841C350.836,318.566,349.158,318.479,347.54,318.479L347.54,318.479z M328.268,331.646
			l15.784-1.74c0.895-0.099,1.801-0.149,2.694-0.149c1.16,0,2.333,0.084,3.489,0.251c1.93,0.28,3.645,0.884,5.094,1.796
			c1.417,0.893,2.521,2.077,3.375,3.62c0.828,1.502,1.205,3.471,1.119,5.85c-0.081,2.527-0.606,4.707-1.561,6.486
			c-0.973,1.815-2.222,3.337-3.711,4.523c-1.529,1.215-3.297,2.181-5.255,2.868c-2.031,0.715-4.111,1.192-6.186,1.421l-15.697,1.733
			L328.268,331.646L328.268,331.646z"/>
		<path fill="#B3B540" d="M421.735,310.071c3.124,0,6.062,0.435,8.817,1.3c3.898,1.23,7.217,3.636,9.959,7.217l-7.012,5.751
			c-1.908-2.624-4.179-4.495-6.811-5.624c-1.936-0.826-4.155-1.24-6.655-1.24c-0.9,0-1.837,0.054-2.81,0.161
			c-2.56,0.283-4.999,0.896-7.324,1.839c-2.323,0.946-4.372,2.182-6.144,3.713c-1.773,1.531-3.21,3.37-4.308,5.513
			c-1.099,2.143-1.698,4.597-1.797,7.359c-0.127,3.252,0.42,5.842,1.646,7.768c1.223,1.928,2.828,3.452,4.813,4.567
			c1.983,1.118,4.281,1.957,6.893,2.517c2.611,0.563,5.26,1.12,7.953,1.674c2.688,0.553,5.332,1.212,7.925,1.977
			c2.591,0.769,4.904,1.91,6.932,3.423c2.029,1.517,3.627,3.545,4.799,6.085c1.17,2.542,1.694,5.842,1.577,9.9
			c-0.137,3.901-0.982,7.436-2.533,10.598c-1.553,3.166-3.577,5.917-6.069,8.253c-2.493,2.34-5.342,4.214-8.544,5.616
			c-3.204,1.406-6.524,2.299-9.961,2.678c-1.661,0.184-3.283,0.274-4.864,0.274c-3.747,0-7.27-0.514-10.569-1.544
			c-4.694-1.465-8.615-4.37-11.764-8.717l7.719-5.949c1.995,3.422,4.607,5.846,7.841,7.268c2.432,1.073,5.148,1.607,8.15,1.607
			c0.987,0,2.005-0.058,3.054-0.173c2.639-0.291,5.131-0.971,7.483-2.039c2.349-1.067,4.406-2.431,6.165-4.08
			c1.761-1.648,3.167-3.564,4.221-5.745c1.053-2.179,1.639-4.572,1.757-7.174c0.073-3-0.475-5.411-1.646-7.221
			c-1.171-1.813-2.765-3.234-4.779-4.268c-2.017-1.032-4.332-1.846-6.947-2.451c-2.616-0.601-5.271-1.196-7.966-1.792
			c-2.695-0.59-5.344-1.311-7.944-2.157c-2.603-0.844-4.902-2.068-6.899-3.668c-1.997-1.601-3.586-3.712-4.765-6.334
			c-1.181-2.619-1.71-5.96-1.591-10.021c0.144-3.817,1.016-7.292,2.612-10.422c1.598-3.128,3.687-5.828,6.27-8.094
			c2.582-2.27,5.515-4.089,8.804-5.464c3.288-1.374,6.73-2.259,10.328-2.656C419.11,310.146,420.438,310.071,421.735,310.071
			 M421.735,308.071c-1.364,0-2.779,0.08-4.204,0.237c-3.771,0.417-7.432,1.358-10.88,2.799c-3.478,1.454-6.624,3.408-9.353,5.808
			c-2.757,2.419-5.022,5.342-6.73,8.687c-1.724,3.379-2.676,7.167-2.83,11.257c-0.128,4.367,0.466,8.035,1.766,10.918
			c1.302,2.897,3.099,5.277,5.337,7.072c2.179,1.747,4.714,3.096,7.533,4.01c2.662,0.867,5.399,1.61,8.134,2.208
			c2.952,0.652,5.552,1.237,7.946,1.788c2.451,0.567,4.633,1.335,6.484,2.282c1.714,0.88,3.026,2.049,4.01,3.572
			c0.943,1.459,1.389,3.507,1.326,6.087c-0.104,2.277-0.628,4.428-1.559,6.353c-0.942,1.95-2.217,3.685-3.787,5.155
			c-1.598,1.497-3.49,2.748-5.626,3.72c-2.148,0.976-4.461,1.605-6.875,1.871c-0.972,0.107-1.925,0.161-2.834,0.161
			c-2.71,0-5.181-0.483-7.343-1.438c-2.863-1.259-5.126-3.366-6.921-6.445l-1.146-1.966l-1.802,1.389l-7.719,5.949l-1.538,1.186
			l1.139,1.572c3.393,4.683,7.695,7.863,12.788,9.452c3.475,1.085,7.231,1.635,11.165,1.635c1.647,0,3.357-0.096,5.083-0.286
			c3.623-0.399,7.171-1.354,10.546-2.835c3.393-1.485,6.458-3.5,9.109-5.989c2.659-2.491,4.845-5.463,6.497-8.83
			c1.669-3.404,2.589-7.243,2.735-11.409c0.126-4.365-0.465-7.997-1.758-10.806c-1.31-2.838-3.133-5.142-5.419-6.851
			c-2.208-1.647-4.751-2.905-7.561-3.739c-2.644-0.779-5.365-1.458-8.091-2.018c-2.865-0.59-5.461-1.137-7.934-1.67
			c-2.405-0.516-4.535-1.291-6.333-2.304c-1.71-0.96-3.052-2.234-4.106-3.896c-0.998-1.568-1.447-3.794-1.336-6.619
			c0.088-2.461,0.619-4.654,1.579-6.524c0.976-1.904,2.266-3.557,3.835-4.912c1.595-1.378,3.476-2.513,5.591-3.375
			c2.144-0.869,4.429-1.442,6.789-1.703c0.896-0.099,1.767-0.149,2.59-0.149c2.216,0,4.191,0.363,5.87,1.08
			c2.285,0.98,4.297,2.649,5.978,4.96l1.247,1.714l1.639-1.344l7.012-5.751l1.495-1.227l-1.176-1.536
			c-2.984-3.897-6.667-6.558-10.945-7.909C428.212,308.54,425.044,308.071,421.735,308.071L421.735,308.071z"/>
		<path fill="#B3B540" d="M521.839,300.999l-0.165,7.301l-29.02,3.202l-2.342,78.914l-7.915,0.873l2.34-78.914l-29.02,3.2
			l0.165-7.302L521.839,300.999 M523.89,298.761l-2.271,0.25l-65.956,7.274l-1.741,0.192l-0.04,1.75l-0.165,7.302l-0.052,2.284
			l2.271-0.25l26.733-2.948l-2.271,76.614l-0.068,2.3l2.287-0.252l7.915-0.873l1.729-0.191l0.051-1.737l2.291-77.176l27.292-3.011
			l1.74-0.192l0.039-1.75l0.165-7.301L523.89,298.761L523.89,298.761z"/>
		<path fill="#B3B540" d="M566.928,296.023l33.23,82.274l-8.872,0.979l-8.604-21.872l-44.972,4.961l-10.224,23.947l-8.274,0.914
			l39.562-90.302L566.928,296.023 M540.995,354.719l38.974-4.298l-17.724-45.139L540.995,354.719 M568.215,293.869l-1.507,0.167
			l-8.152,0.901l-1.148,0.127l-0.464,1.058l-39.562,90.302l-1.389,3.171l3.44-0.38l8.274-0.914l1.161-0.129l0.458-1.074
			l9.766-22.873l42.29-4.666l8.043,20.448l0.561,1.424l1.521-0.168l8.871-0.979l2.624-0.289l-0.988-2.448l-33.23-82.274
			L568.215,293.869L568.215,293.869z M544.188,352.354l17.973-41.814l14.991,38.178L544.188,352.354L544.188,352.354z"/>
		<path fill="#B3B540" d="M628.808,289.197l-2.506,86.215l-7.915,0.873l2.506-86.215L628.808,289.197 M630.874,286.958l-2.285,0.252
			l-7.915,0.873l-1.729,0.19l-0.051,1.739l-2.506,86.215l-0.067,2.298l2.286-0.252l7.915-0.873l1.729-0.19l0.051-1.739l2.506-86.215
			L630.874,286.958L630.874,286.958z"/>
		<path fill="#B3B540" d="M687.681,283.039c1.126,0,2.298,0.042,3.519,0.127c2.239,0.159,4.49,0.558,6.747,1.197
			c2.254,0.644,4.293,1.713,6.119,3.211c1.822,1.497,3.275,3.48,4.359,5.953c1.08,2.47,1.584,5.57,1.511,9.301
			c-0.11,4.139-0.899,7.625-2.366,10.457c-1.469,2.833-3.291,5.198-5.47,7.096s-4.562,3.398-7.151,4.492
			c-2.59,1.098-5.065,1.937-7.43,2.518l23.565,38.672l-8.993,0.991l-22.672-38.282l-14.751,1.628l-1.191,40.915l-7.915,0.873
			l2.506-86.215l22.305-2.461c1.118-0.124,2.642-0.25,4.57-0.381C685.823,283.068,686.735,283.039,687.681,283.039 M664.832,323.097
			l16.791-1.854c4.154-0.458,7.557-1.359,10.199-2.703c2.644-1.343,4.7-2.864,6.172-4.566c1.471-1.697,2.488-3.468,3.058-5.312
			c0.565-1.842,0.887-3.499,0.969-4.962c0.081-1.466-0.116-3.062-0.59-4.79s-1.413-3.284-2.819-4.667
			c-1.409-1.379-3.388-2.458-5.941-3.229c-1.602-0.483-3.52-0.725-5.753-0.725c-1.325,0-2.763,0.085-4.311,0.256l-16.789,1.853
			L664.832,323.097 M687.681,281.039c-0.985,0-1.952,0.032-2.873,0.094c-1.952,0.133-3.519,0.263-4.655,0.389l-22.305,2.461
			l-1.729,0.19l-0.051,1.739l-2.506,86.215l-0.067,2.298l2.286-0.252l7.915-0.873l1.729-0.19l0.051-1.739l1.141-39.175l11.739-1.296
			l22.015,37.171l0.657,1.11l1.282-0.142l8.993-0.991l3.125-0.344l-1.636-2.684l-22.191-36.417c1.665-0.518,3.382-1.151,5.128-1.892
			c2.762-1.166,5.348-2.79,7.685-4.825c2.358-2.054,4.354-4.64,5.932-7.684c1.601-3.09,2.472-6.899,2.59-11.324
			c0.079-4.018-0.485-7.43-1.678-10.156c-1.206-2.752-2.862-5.004-4.922-6.697c-2.03-1.665-4.331-2.872-6.839-3.588
			c-2.382-0.674-4.788-1.101-7.155-1.269C690.078,281.083,688.848,281.039,687.681,281.039L687.681,281.039z M667.761,294.197
			l15.065-1.663c1.468-0.162,2.844-0.244,4.091-0.244c2.026,0,3.768,0.215,5.176,0.64c2.223,0.67,3.945,1.593,5.119,2.743
			c1.157,1.137,1.907,2.37,2.29,3.766c0.415,1.513,0.59,2.91,0.521,4.151c-0.073,1.303-0.37,2.813-0.884,4.485
			c-0.484,1.569-1.379,3.114-2.657,4.59c-1.294,1.497-3.166,2.874-5.566,4.093c-2.416,1.229-5.616,2.069-9.512,2.498l-14.499,1.6
			L667.761,294.197L667.761,294.197z"/>
		<path fill="#B3B540" d="M763.505,272.37c3.124,0,6.063,0.435,8.819,1.302c3.897,1.229,7.217,3.634,9.959,7.215l-7.012,5.751
			c-1.908-2.624-4.179-4.495-6.812-5.624c-1.936-0.826-4.154-1.24-6.655-1.24c-0.9,0-1.837,0.054-2.811,0.161
			c-2.558,0.283-4.997,0.896-7.322,1.839c-2.322,0.946-4.372,2.182-6.143,3.713c-1.774,1.531-3.211,3.37-4.309,5.513
			c-1.101,2.143-1.7,4.597-1.798,7.359c-0.129,3.252,0.42,5.842,1.646,7.768c1.224,1.93,2.826,3.452,4.813,4.567
			c1.983,1.118,4.28,1.957,6.892,2.518c2.611,0.562,5.262,1.12,7.954,1.673c2.688,0.553,5.332,1.214,7.926,1.977
			c2.59,0.769,4.903,1.91,6.932,3.423c2.028,1.517,3.625,3.545,4.799,6.085c1.17,2.543,1.693,5.842,1.577,9.9
			c-0.138,3.901-0.983,7.436-2.532,10.598c-1.553,3.166-3.577,5.917-6.071,8.255c-2.493,2.338-5.341,4.212-8.543,5.615
			c-3.205,1.406-6.524,2.298-9.963,2.678c-1.66,0.183-3.281,0.275-4.861,0.275c-3.748,0-7.271-0.515-10.571-1.545
			c-4.693-1.465-8.614-4.37-11.765-8.716l7.719-5.949c1.996,3.423,4.607,5.845,7.842,7.268c2.433,1.073,5.149,1.608,8.151,1.608
			c0.987,0,2.004-0.058,3.053-0.173c2.639-0.292,5.13-0.97,7.483-2.038c2.348-1.069,4.404-2.433,6.164-4.082
			c1.761-1.649,3.168-3.563,4.222-5.746c1.052-2.179,1.639-4.57,1.757-7.174c0.074-3-0.475-5.409-1.646-7.221
			c-1.169-1.813-2.765-3.234-4.779-4.268c-2.016-1.03-4.33-1.846-6.947-2.451c-2.615-0.601-5.27-1.195-7.965-1.792
			c-2.695-0.59-5.345-1.31-7.943-2.157c-2.604-0.844-4.903-2.068-6.9-3.668c-1.997-1.601-3.585-3.712-4.766-6.334
			c-1.181-2.619-1.71-5.96-1.59-10.021c0.145-3.817,1.016-7.292,2.613-10.422c1.597-3.128,3.685-5.828,6.268-8.094
			c2.583-2.27,5.516-4.089,8.804-5.463c3.288-1.375,6.73-2.261,10.328-2.658C760.88,272.444,762.208,272.37,763.505,272.37
			 M763.505,270.37c-1.364,0-2.778,0.08-4.204,0.237c-3.773,0.417-7.434,1.359-10.88,2.801c-3.473,1.451-6.62,3.404-9.353,5.806
			c-2.757,2.419-5.021,5.342-6.729,8.687c-1.724,3.376-2.676,7.164-2.83,11.256c-0.13,4.366,0.464,8.034,1.765,10.918
			c1.306,2.9,3.102,5.279,5.338,7.072c2.18,1.747,4.715,3.097,7.534,4.01c2.645,0.863,5.382,1.606,8.133,2.208
			c2.686,0.595,5.334,1.188,7.944,1.788c2.446,0.565,4.629,1.333,6.485,2.282c1.716,0.88,3.027,2.049,4.009,3.57
			c0.945,1.462,1.392,3.51,1.328,6.088c-0.104,2.276-0.629,4.428-1.559,6.354c-0.94,1.947-2.215,3.682-3.788,5.156
			c-1.597,1.496-3.489,2.748-5.626,3.721c-2.146,0.974-4.459,1.603-6.874,1.87c-0.971,0.107-1.924,0.161-2.833,0.161
			c-2.71,0-5.181-0.484-7.345-1.438c-2.862-1.259-5.126-3.367-6.921-6.445l-1.146-1.966l-1.802,1.389l-7.719,5.949l-1.538,1.186
			l1.14,1.572c3.394,4.683,7.696,7.862,12.788,9.452c3.476,1.085,7.232,1.636,11.167,1.636c1.646,0,3.355-0.097,5.081-0.287
			c3.622-0.399,7.17-1.353,10.547-2.834c3.389-1.484,6.453-3.499,9.107-5.987c2.661-2.495,4.848-5.466,6.499-8.833
			c1.668-3.406,2.588-7.244,2.735-11.409c0.125-4.366-0.467-7.998-1.759-10.807c-1.313-2.84-3.136-5.144-5.419-6.851
			c-2.208-1.647-4.751-2.905-7.56-3.739c-2.668-0.784-5.389-1.463-8.093-2.019c-2.604-0.535-5.274-1.096-7.936-1.669
			c-2.403-0.517-4.533-1.292-6.331-2.305c-1.71-0.959-3.052-2.233-4.105-3.896c-0.999-1.57-1.448-3.796-1.337-6.618
			c0.088-2.462,0.618-4.654,1.579-6.524c0.977-1.906,2.267-3.558,3.836-4.912c1.593-1.377,3.473-2.512,5.591-3.375
			c2.144-0.869,4.429-1.442,6.787-1.703c0.896-0.099,1.768-0.149,2.591-0.149c2.217,0,4.191,0.363,5.87,1.08
			c2.286,0.979,4.299,2.649,5.979,4.96l1.246,1.714l1.64-1.344l7.012-5.751l1.495-1.227l-1.176-1.536
			c-2.985-3.898-6.668-6.559-10.945-7.907C769.984,270.838,766.815,270.37,763.505,270.37L763.505,270.37z"/>
	</g>
	
		<text transform="matrix(0.994 -0.1097 0.1097 0.994 216.4395 420.5918)" fill="#FFFFFF" font-family="'Avenir-LightOblique'" font-size="120.6483" letter-spacing="6">UPSTAIRS</text>
	
		<text transform="matrix(0.6442 -0.0711 0.1097 0.994 240.0576 489.918)" opacity="0.3" fill="#FFFFFF" font-family="'BlackoakStd'" font-size="61.6065" letter-spacing="29.316">GARDEN</text>
	<g>
		<path fill="none" stroke="#B3B540" stroke-width="4" stroke-miterlimit="10" d="M295.249,448.792
			c0.101,0.915-0.043,1.427-0.281,1.456l-14.132,1.558c-0.397,0.045-0.741-0.166-1.134-0.807c-0.432-0.634-2.809-4.336-12.098-3.312
			c-8.733,0.964-11.404,8.448-10.843,13.529c1.115,10.103,9.446,10.237,14.687,9.659c3.374-0.372,4.201-3.438,4.117-6.031
			l-8.178,0.903c-0.675,0.073-1.225-0.178-1.293-0.789l-0.702-6.368c-0.135-1.223,0.36-1.467,0.956-1.531l38.03-4.196
			c0.793-0.085,1.198,0.675,1.266,1.288l0.635,5.756c0.148,1.346-0.387,1.593-1.181,1.68l-8.138,0.898l1.695,15.364
			c0.135,1.226-0.446,1.415-1.241,1.503l-10.52,1.161c-0.914,0.1-1.402,0.028-1.98-0.837l-2.721-3.542
			c-2.552,4.93-8.756,5.863-16.299,6.695c-2.341,0.257-29.615,2.892-32.039-19.088c-2.5-22.655,19.034-25.957,26.338-26.762
			c13.14-1.449,15.5,0.271,18.82,2.323l0.145-3.054c0.012-0.622,0.05-1.368,0.844-1.456l12.306-1.357
			c0.794-0.088,1.271,0.23,1.487,2.191L295.249,448.792z"/>
		<path fill="none" stroke="#B3B540" stroke-width="4" stroke-miterlimit="10" d="M361.739,472.256
			c-0.595,0.064-0.974-0.451-1.041-1.062l-0.987-8.939c-0.061-0.552,0.137-0.945,0.535-0.989l6.708-0.741l-2.924-5.006
			l-12.306,1.359l-1.761,5.521l7.424-0.819c0.437-0.048,0.675,0.299,0.716,0.667l1.006,9.122c0.08,0.733-0.032,1.181-0.429,1.224
			l-26.994,2.979c-0.913,0.102-1.602,0.052-1.696-0.805l-1.033-9.367c-0.074-0.675,0.085-1.062,0.68-1.129l8.139-0.898
			l11.735-34.945c0.296-0.961,0.771-1.385,1.248-1.438l18.26-2.014c0.795-0.086,1.344,0.533,1.612,1.123l19.732,32.093l8.773-0.968
			c0.674-0.073,0.796,1.028,0.897,1.948l0.858,7.773c0.081,0.737-0.288,1.025-1.003,1.104L361.739,472.256z M353.644,450.961
			l7.065-0.779l-3.892-6.881c-0.139-0.172-0.536-0.129-0.596,0.065L353.644,450.961z"/>
		<path fill="none" stroke="#B3B540" stroke-width="4" stroke-miterlimit="10" d="M468.674,413.98
			c1.032-0.113,9.655-0.632,13.345,1.13c2.629,1.26,6.586,3.981,7.133,8.943c0.506,4.594-3.164,8.466-6.797,11.223
			c3.391,1.979,5.525,3.108,7.412,9.283c0.406,1.134,0.852,1.889,1.486,1.821c0.833-0.094,2.936-1.442,2.49-5.482l-0.189-1.714
			c-0.041-0.366,0.091-0.63,0.488-0.675l4.683-0.515c0.279-0.032,0.465,0.196,0.545,0.932l0.729,6.611
			c0.723,6.552-4.981,12.015-7.881,12.335l-15.76,1.738c-2.58,0.284-5.38-2.878-6.164-4.527c-0.765-1.465-2.165-6.142-2.724-7.567
			c-1.797-4.635-5.794-4.441-6.707-4.342l-10.004,1.103l0.735,6.672l9.251-1.02c0.356-0.04,0.601-0.004,0.635,0.304l1.162,10.528
			c0.034,0.308-0.198,0.396-0.554,0.435l-38.388,4.233c-0.199,0.023-0.463-0.196-0.531-0.808l-1.107-10.042
			c-0.034-0.305,0.117-0.757,0.355-0.783l8.773-0.967l-2.566-23.267l-8.814,0.973c-0.357,0.039-0.609-0.056-0.697-0.854l-1.02-9.243
			c-0.047-0.43,0.064-0.875,0.343-0.905L468.674,413.98z M448.917,427.56l0.756,6.858l12.108-1.335
			c2.579-0.284,5.622-1.488,5.358-3.874c-0.317-2.876-4.487-3.162-5.162-3.089L448.917,427.56z"/>
		<path fill="none" stroke="#B3B540" stroke-width="4" stroke-miterlimit="10" d="M528.35,418.305l-8.773,0.967
			c-0.358,0.039-0.821,0.216-0.914-0.641l-0.974-8.818c-0.054-0.49,0.023-1.241,0.658-1.312l42.636-4.702
			c1.865-0.207,28.107,0.183,30.275,19.835c2.16,19.592-18.302,25.322-27.195,26.303l-39.777,4.388
			c-0.792,0.088-1.667,0.185-1.835-1.347l-0.805-7.286c-0.101-0.919-0.15-2.091,0.646-2.178l8.732-0.965L528.35,418.305z
			 M551.23,440.32l7.305-0.805c4.564-0.505,11.006-5.117,10.094-13.385c-0.951-8.633-8.84-11.296-10.784-11.081l-9.29,1.026
			L551.23,440.32z"/>
		<path fill="none" stroke="#B3B540" stroke-width="4" stroke-miterlimit="10" d="M678.063,390.883
			c0.715-0.079,0.962,0.327,1.062,1.243l1.925,17.45c0.067,0.615-0.004,1.056-0.401,1.099l-13.655,1.506
			c-0.278,0.032-0.519,0.058-0.564-0.368l-0.852-7.717l-22.943,2.529l0.642,5.816l12.782-1.409c0.397-0.043,0.568,0.062,0.622,0.551
			l1.062,9.614c0.055,0.49-0.408,0.662-0.886,0.714l-12.385,1.366l0.683,6.186l23.263-2.564l-0.825-7.47
			c-0.061-0.551-0.016-1.238,0.619-1.306l14.527-1.604c0.279-0.03,0.473,0.259,0.567,1.114l1.993,18.062
			c0.046,0.429-0.066,0.874-0.818,0.958l-67.328,7.427c-0.517,0.058-0.985,0.17-1.067-0.565l-1.066-9.673
			c-0.061-0.551,0.124-1.066,0.481-1.105l9.012-0.994l-2.527-22.899l-9.051,0.998c-0.318,0.036-0.543,0.185-0.623-0.551
			l-1.155-10.469c-0.034-0.307,0.336-0.596,0.932-0.66L678.063,390.883z"/>
		<path fill="none" stroke="#B3B540" stroke-width="4" stroke-miterlimit="10" d="M738.021,384.268
			c0.396-0.045,0.868,0.213,1.312,0.597l23.343,24.384l-1.742-15.796l-8.732,0.962c-0.596,0.066-0.948-0.205-1.002-0.693
			l-1.041-9.43c-0.078-0.735,0.131-1.377,0.408-1.406l28.344-3.126c0.715-0.079,0.975,0.819,1.042,1.431l0.986,8.94
			c0.089,0.794-0.275,1.146-0.791,1.203l-8.457,0.933l3.606,32.693c0.116,1.045-0.015,1.678-0.529,1.735l-24.455,2.697
			c-0.277,0.028-0.72,0.018-1.04-0.32l-25.571-26.741l1.993,18.062l9.171-1.011c0.476-0.054,1.024,0.197,1.093,0.809l1.026,9.305
			c0.102,0.92-0.17,1.385-0.646,1.438l-28.939,3.19c-0.397,0.043-0.642-0.362-0.731-1.159l-1.02-9.245
			c-0.054-0.488,0.078-1.125,0.873-1.211l8.614-0.952l-2.514-22.773l-8.892,0.98c-0.278,0.03-0.695-0.111-0.797-1.027l-1.054-9.555
			c-0.066-0.608,0.295-0.959,0.891-1.025L738.021,384.268z"/>
	</g>
	
		<text transform="matrix(0.6442 -0.0711 0.1097 0.994 234.5581 486.252)" fill="#FFFFFF" font-family="'BlackoakStd'" font-size="61.6065" letter-spacing="29.316">GARDEN</text>
	
		<line opacity="0.6" fill="none" stroke="#FFFFFF" stroke-width="2" stroke-miterlimit="10" x1="226.819" y1="533.505" x2="801.658" y2="464.934"/>
	
		<line fill="none" stroke="#FFFFFF" stroke-width="5" stroke-miterlimit="10" x1="226.819" y1="524.505" x2="801.658" y2="455.934"/>
	
		<line opacity="0.6" fill="none" stroke="#FFFFFF" stroke-width="2" stroke-miterlimit="10" x1="535.34" y1="259.176" x2="798.741" y2="227.495"/>
	
		<line opacity="0.6" fill="none" stroke="#FFFFFF" stroke-width="2" stroke-miterlimit="10" x1="223.902" y1="296.066" x2="486.311" y2="264.691"/>
	<line fill="none" stroke="#FFFFFF" stroke-width="5" stroke-miterlimit="10" x1="535.34" y1="250.176" x2="798.741" y2="218.495"/>
	
		<line fill="none" stroke="#FFFFFF" stroke-width="5" stroke-miterlimit="10" x1="223.902" y1="287.066" x2="486.311" y2="255.691"/>
	<g>
		<g id="XMLID_1_">
			<g>
				<path fill="#FFFFFF" d="M534.757,231.772c-22.173,13.958-28.325-5.604-11.043-17.545c-8.583,1.372-13.258,6.111-14.025,14.204
					c-2.354-1.886-3.337-4.303-2.952-7.241c0.375-1.875,0.745-3.755,1.121-5.631c8.181-22.766,35.597-12.187,45.389-29.915
					C550.125,200.714,550.016,222.156,534.757,231.772z"/>
			</g>
			<g>
				<path fill="#FFFFFF" d="M507.858,215.559c8.181-22.766,35.597-12.187,45.389-29.915"/>
				<path fill="#FFFFFF" d="M506.737,221.189c0.375-1.875,0.745-3.755,1.121-5.63"/>
				<path fill="#FFFFFF" d="M553.247,185.644c-3.122,15.07-3.231,36.512-18.49,46.128c-22.172,13.958-28.324-5.604-11.042-17.545
					c-8.584,1.372-13.258,6.111-14.025,14.204c-2.354-1.886-3.338-4.303-2.952-7.241"/>
			</g>
		</g>
		<g id="XMLID_2_">
			<g>
				<path fill="#FFFFFF" d="M509.015,238.092c0.201-1.145-0.49-2.41-0.657-3.306c-2.282-6.351-6.452-9.88-14.212-11.332
					c-5.546-1.036-12.12,2.792-19.69,2.792c9.115,5.69,9.778,12.803,18.112,18.055c3.184,2.005,9.872,4.612,13.14,1.472
					c0.421-8.431-7.313-10.524-11.18-13.197c5.652,2.291,12.163,4.023,12.755,9.761C508.75,242.158,509.015,239.216,509.015,238.092
					z"/>
			</g>
			<g>
				<path fill="#FFFFFF" d="M508.356,234.786c-2.282-6.351-6.452-9.88-14.212-11.332c-5.546-1.036-12.119,2.792-19.69,2.792"/>
				<path fill="#FFFFFF" d="M509.015,238.092c0.201-1.145-0.49-2.41-0.657-3.306"/>
				<path fill="#FFFFFF" d="M474.455,226.249c9.115,5.689,9.778,12.802,18.112,18.055c3.184,2.004,9.872,4.611,13.14,1.472
					c0.421-8.432-7.313-10.525-11.18-13.198c5.652,2.29,12.163,4.023,12.755,9.762c1.47-0.183,1.734-3.127,1.734-4.25"/>
			</g>
		</g>
		<g>
			<g>
				<path fill="#FFFFFF" d="M509.868,230.525c-1.26,6.135-2.541,12.708-1.942,18.987c0.579,6.088,2.938,10.744,4.992,16.406
					c0.744,2.054,2.534,1.826,3.337,0c1.038-2.36,0.86-5.211,0-7.584c-0.841-2.32-1.716-4.616-2.782-6.842
					c-0.662-1.38-0.486-0.879-0.785-3.023c-0.569-4.082,0.433-8.528,1.255-12.531c0.47-2.291,0.654-5.342-0.846-7.338
					C511.658,226.685,510.16,229.106,509.868,230.525L509.868,230.525z"/>
			</g>
		</g>
	</g>
</g>
</svg>
